<svg width="180" height="108" viewBox="0 0 180 108" fill="none" xmlns="http://www.w3.org/2000/svg">
<g clip-path="url(#clip0_116_383)">
<path d="M158.609 42.0025L161.194 49.5089C163.482 43.1392 168.343 40.348 174.138 38.6177C175.684 38.1546 176.233 38.6935 176.443 40.0323C177.838 49.6604 175.152 57.1289 164.119 60.5221C162.795 60.9431 162.317 61.3893 162.342 62.766C162.38 64.7194 162.179 66.677 162.078 68.6599C162.133 68.6599 162.313 68.7315 162.363 68.6599C166.671 63.8437 172.223 63.0312 178.244 63.608C179.887 63.7595 180.18 64.53 179.92 65.9908C178.177 75.6737 171.205 81.1466 161.395 80.3046C159.669 80.1531 158.768 80.473 158.156 82.2117C157.465 84.1736 156.367 86.0007 155.42 87.9415C157.172 87.4531 158.848 86.7753 160.587 86.5522C164.995 85.988 168.967 87.3942 172.738 89.6381C173.995 90.3917 173.79 91.1579 173.086 92.2146C167.4 100.752 159.258 102.904 150.195 98.1085C148.85 97.397 148.184 97.5696 147.015 98.5295C143.244 101.594 139.271 104.453 135.307 107.295C134.792 107.665 133.862 107.459 133.128 107.518C133.581 106.92 133.908 106.103 134.507 105.758C147.312 98.3737 155.655 87.5963 159.502 73.2277C164.065 56.1732 157.256 35.3382 143.394 24.3923C139.9 21.6306 137.281 18.2542 136.527 13.7033C135.731 8.91235 137.436 4.73187 139.879 0.799783C140.097 0.450358 141.555 0.446148 142.104 0.799783C150.589 6.36533 152.709 14.52 148.121 23.5714C147.836 24.1271 147.559 24.6828 147.258 25.2848L152.789 31.7092C153.111 29.8358 153.237 27.9708 153.778 26.2363C155.06 22.1316 157.851 19.1299 161.232 16.6081C162.489 15.6862 163.046 16.3555 163.7 17.3617C169.084 25.6343 167.953 33.9994 160.536 40.4827C159.866 40.95 159.225 41.4805 158.609 42.0025Z" fill="#96722C"/>
<path d="M122.511 37.0643C123.835 38.5841 125.058 40.0112 126.592 41.7626C126.671 36.8033 128.876 33.3427 132.332 30.5515C134.18 29.0696 134.608 29.1664 135.835 31.2672C139.581 37.6831 138.848 43.7076 133.413 48.4943C131.783 49.9257 131.411 51.0581 132.466 52.86C132.885 53.5504 133.028 54.3882 133.422 55.5123C135.349 50.6834 138.957 48.528 143.277 47.2271C144.895 46.7387 145.561 47.3534 145.829 48.9321C147.115 56.43 143.847 62.3239 136.782 64.6226C135.031 65.1951 134.39 65.9192 134.604 67.6622C134.657 68.4513 134.657 69.2432 134.604 70.0324C137.118 69.1441 139.678 68.0537 142.339 67.3675C143.763 67.0012 145.372 67.338 146.898 67.3422C148.318 67.3422 148.653 68.0747 148.423 69.3882C147.166 76.5915 141.941 81.1003 134.654 80.8519C132.467 80.7761 131.302 81.3234 130.719 83.3779C130.476 84.2199 129.957 85.0071 129.353 86.2491C133.858 84.4641 137.826 85.2639 141.651 87.2679C143.935 88.4677 144.015 88.8382 142.452 90.8295C137.671 96.9381 131.767 98.3569 124.853 94.9089C123.596 94.2901 122.992 94.5469 121.987 95.3552C119.117 97.6791 116.121 99.843 113.091 101.961C112.576 102.323 111.683 102.146 110.962 102.217C111.381 101.615 111.704 100.778 112.291 100.445C120.885 95.5446 127.237 88.6151 130.371 79.1806C135.726 63.0859 131.913 49.1216 119.896 37.3211C118.639 36.1002 117.323 34.9382 116.2 33.6079C111.985 28.5981 113.221 22.4473 116.074 17.749C116.854 16.4861 117.642 17.0544 118.509 17.6312C124.987 21.9463 126.701 28.4507 123.223 35.6076C123.039 36.0623 122.808 36.4875 122.511 37.0643Z" fill="#96722C"/>
</g>
<g clip-path="url(#clip1_116_383)">
<path d="M21.391 42.0025L18.8056 49.5089C16.5178 43.1392 11.6572 40.348 5.86211 38.6177C4.31593 38.1546 3.76701 38.6935 3.5575 40.0323C2.16216 49.6604 4.84809 57.1289 15.8809 60.5221C17.205 60.9431 17.6827 61.3893 17.6575 62.766C17.6198 64.7194 17.8209 66.677 17.9215 68.6599C17.867 68.6599 17.6868 68.7315 17.6366 68.6599C13.329 63.8437 7.77706 63.0312 1.75574 63.608C0.113186 63.7595 -0.180126 64.53 0.0796661 65.9908C1.82279 75.6737 8.79526 81.1466 18.6045 80.3046C20.3309 80.1531 21.2318 80.473 21.8435 82.2117C22.5349 84.1736 23.6328 86.0007 24.5797 87.9415C22.8282 87.4531 21.1521 86.7753 19.4132 86.5522C15.0051 85.988 11.0328 87.3942 7.26162 89.6381C6.00456 90.3917 6.2099 91.1579 6.91385 92.2146C12.6 100.752 20.7415 102.904 29.8049 98.1085C31.15 97.397 31.8162 97.5696 32.9853 98.5295C36.7564 101.594 40.7288 104.453 44.6927 107.295C45.2081 107.665 46.1383 107.459 46.8716 107.518C46.419 106.92 46.0922 106.103 45.493 105.758C32.6878 98.3737 24.3451 87.5963 20.4985 73.2277C15.9354 56.1732 22.7444 35.3382 36.6056 24.3923C40.1002 21.6306 42.7191 18.2542 43.4733 13.7033C44.2695 8.91235 42.5641 4.73187 40.1212 0.799783C39.9033 0.450358 38.4451 0.446148 37.8962 0.799783C29.4111 6.36533 27.2908 14.52 31.879 23.5714C32.164 24.1271 32.4405 24.6828 32.7422 25.2848L27.2112 31.7092C26.8886 29.8358 26.7628 27.9708 26.2223 26.2363C24.9401 22.1316 22.1494 19.1299 18.7679 16.6081C17.5109 15.6862 16.9536 16.3555 16.2999 17.3617C10.9155 25.6343 12.0469 33.9994 19.4635 40.4827C20.134 40.95 20.7751 41.4805 21.391 42.0025Z" fill="#96722C"/>
<path d="M57.4894 37.0643C56.1653 38.5841 54.9417 40.0112 53.4081 41.7626C53.3285 36.8033 51.1245 33.3427 47.6676 30.5515C45.8197 29.0696 45.3923 29.1664 44.1646 31.2672C40.4185 37.6831 41.1518 43.7076 46.5865 48.4943C48.2165 49.9257 48.5895 51.0581 47.5335 52.86C47.1145 53.5504 46.972 54.3882 46.5781 55.5123C44.6507 50.6834 41.0429 48.528 36.7228 47.2271C35.1054 46.7387 34.4391 47.3534 34.171 48.9321C32.8846 56.43 36.1529 62.3239 43.2176 64.6226C44.9691 65.1951 45.6102 65.9192 45.3965 67.6622C45.3426 68.4513 45.3426 69.2432 45.3965 70.0324C42.8824 69.1441 40.3222 68.0537 37.6614 67.3675C36.2367 67.0012 34.6277 67.338 33.1025 67.3422C31.682 67.3422 31.3468 68.0747 31.5772 69.3882C32.8343 76.5915 38.0594 81.1003 45.3462 80.8519C47.5335 80.7761 48.6984 81.3234 49.2808 83.3779C49.5238 84.2199 50.0434 85.0071 50.6468 86.2491C46.1423 84.4641 42.1742 85.2639 38.3486 87.2679C36.0649 88.4677 35.9853 88.8382 37.5482 90.8295C42.3293 96.9381 48.2333 98.3569 55.1471 94.9089C56.4041 94.2901 57.0076 94.5469 58.0132 95.3552C60.8835 97.6791 63.8795 99.843 66.909 101.961C67.4244 102.323 68.3169 102.146 69.0376 102.217C68.6186 101.615 68.2959 100.778 67.7093 100.445C59.1152 95.5446 52.7629 88.6151 49.6286 79.1806C44.2735 63.0859 48.0866 49.1216 60.1041 37.3211C61.3612 36.1002 62.6769 34.9382 63.7998 33.6079C68.0152 28.5981 66.7791 22.4473 63.9256 17.749C63.1462 16.4861 62.3584 17.0544 61.491 17.6312C55.013 21.9463 53.2992 28.4507 56.7771 35.6076C56.9614 36.0623 57.1919 36.4875 57.4894 37.0643Z" fill="#96722C"/>
</g>
<path d="M89.5979 51.3043C90.1966 49.4617 92.8034 49.4617 93.4021 51.3043L95.429 57.5424C95.6967 58.3664 96.4647 58.9244 97.3311 58.9244H103.89C105.828 58.9244 106.633 61.4036 105.066 62.5424L99.7594 66.3978C99.0584 66.907 98.7651 67.8098 99.0328 68.6338L101.06 74.8719C101.658 76.7145 99.5494 78.2468 97.982 77.108L92.6756 73.2526C91.9746 72.7433 91.0254 72.7433 90.3244 73.2526L85.018 77.108C83.4506 78.2468 81.3416 76.7145 81.9403 74.8719L83.9672 68.6338C84.2349 67.8098 83.9416 66.907 83.2406 66.3978L77.9342 62.5424C76.3668 61.4036 77.1723 58.9244 79.1098 58.9244H85.6689C86.5353 58.9244 87.3033 58.3664 87.571 57.5424L89.5979 51.3043Z" fill="#96722C"/>
<defs>
<clipPath id="clip0_116_383">
<rect width="69" height="107" fill="white" transform="translate(111 0.450195)"/>
</clipPath>
<clipPath id="clip1_116_383">
<rect width="69" height="107" fill="white" transform="matrix(-1 0 0 1 69 0.450195)"/>
</clipPath>
</defs>
</svg>
