<svg width="50" height="51" viewBox="0 0 50 51" fill="none" xmlns="http://www.w3.org/2000/svg">
<g clip-path="url(#clip0_827_545)">
<path d="M18.5651 9.77709V2.83646C18.5651 0.899536 18.5651 0.899536 20.4747 0.899536H48.5618C49.8257 0.899536 49.9968 1.07225 49.9968 2.34254C49.9968 12.4048 49.9968 22.4661 49.9968 32.5262C49.9968 33.7465 49.8096 33.9386 48.6135 33.9402H41.1187V34.9635C41.1187 39.8338 41.1187 44.7035 41.1187 49.5727C41.1187 50.6671 40.896 50.8882 39.7999 50.8899C37.7015 50.8899 35.603 50.8899 33.5045 50.8899C32.9202 50.8899 32.3342 50.8124 32.3278 50.1102C32.3213 49.4081 32.904 49.3145 33.4916 49.3177C35.4771 49.3258 37.4625 49.3177 39.5546 49.3177V34.2824C39.5546 32.3777 39.5546 32.3777 41.4916 32.3777H48.3794V2.51364H20.1308V3.46918C20.1308 8.84952 20.1308 14.2299 20.1308 19.6102C20.1308 19.8523 20.2067 20.1558 20.0905 20.322C19.9 20.5996 19.5965 20.937 19.3108 20.9676C19.0929 20.9902 18.7749 20.6109 18.607 20.343C18.4956 20.1654 18.5667 19.8717 18.5667 19.6296C18.5667 16.9146 18.5667 14.1981 18.5667 11.4138H1.63527V32.3341H18.5651C18.5651 30.9073 18.5651 29.5175 18.5651 28.1262C18.5651 27.8857 18.4956 27.5903 18.607 27.4144C18.7684 27.148 19.0913 26.7687 19.3124 26.7929C19.5981 26.822 19.8693 27.1771 20.0985 27.4386C20.1809 27.5322 20.1292 27.7501 20.1292 27.9099V37.5945C20.1292 37.701 20.1712 37.8463 20.1179 37.9173C19.8709 38.2159 19.5965 38.4936 19.3318 38.7793C19.0768 38.4839 18.6328 38.2079 18.6022 37.8915C18.5053 36.9053 18.5651 35.9045 18.5634 34.9086V33.9886H1.61429V49.2774H18.5634C18.5634 48.2217 18.5634 47.179 18.5634 46.1428C18.5634 45.9007 18.5634 45.6586 18.5634 45.4164C18.5796 44.887 18.8298 44.4932 19.3705 44.5174C19.9113 44.5416 20.1211 44.9613 20.1211 45.4858C20.1211 46.7222 20.1211 47.9586 20.1211 49.329C21.2188 49.329 22.2939 49.2273 23.3496 49.3532C24.9105 49.5388 26.055 49.0417 27.0477 47.8263C27.8952 46.79 28.9315 45.9104 29.8774 44.9532C30.2729 44.5529 30.7006 44.2607 31.1849 44.7611C31.6337 45.2227 31.3673 45.6343 30.988 46.012C29.5045 47.4906 28.0372 48.9997 26.5328 50.4524C26.2398 50.7153 25.864 50.8672 25.4706 50.8818C17.3727 50.9055 9.27423 50.9108 1.17522 50.8979C0.277724 50.8979 0.00976562 50.6364 0.00976562 49.7551C0.00976562 36.8133 0.00976562 23.8725 0.00976562 10.9328C0.00976562 10.0273 0.280951 9.78516 1.25432 9.78516C6.6619 9.78516 12.07 9.78516 17.4787 9.78516L18.5651 9.77709Z" fill="#96722C"/>
</g>
<defs>
<clipPath id="clip0_827_545">
<rect width="50" height="50" fill="white" transform="translate(-0.00195312 0.897827)"/>
</clipPath>
</defs>
</svg>
