<svg width="55" height="55" viewBox="0 0 55 55" fill="none" xmlns="http://www.w3.org/2000/svg">
<circle cx="27" cy="27" r="26.5" transform="matrix(-1 0 0 1 54.0718 0.35498)" stroke="#96722C"/>
<path d="M20.2999 27.5218L27.5519 34.7738C27.6817 34.9035 27.7497 35.0564 27.7559 35.2324C27.7612 35.4084 27.6901 35.5698 27.5426 35.7164C27.3968 35.8586 27.2399 35.9311 27.0719 35.9338C26.9048 35.9355 26.7475 35.8631 26.5999 35.7164L18.4932 27.6098C18.3768 27.4924 18.295 27.3733 18.2479 27.2524C18.2008 27.1315 18.1772 26.9991 18.1772 26.8551C18.1772 26.7111 18.2008 26.5786 18.2479 26.4578C18.295 26.3369 18.3768 26.2182 18.4932 26.1018L26.5999 17.9938C26.7244 17.8693 26.8759 17.8026 27.0546 17.7938C27.2341 17.7849 27.3972 17.8515 27.5439 17.9938C27.6906 18.1404 27.7639 18.2986 27.7639 18.4684C27.7639 18.6391 27.6906 18.7978 27.5439 18.9444L20.2986 26.1884H35.7386C35.9288 26.1884 36.0875 26.252 36.2146 26.3791C36.3417 26.5062 36.4052 26.6649 36.4052 26.8551C36.4052 27.0453 36.3417 27.204 36.2146 27.3311C36.0875 27.4582 35.9288 27.5218 35.7386 27.5218H20.2999Z" fill="#96722C"/>
</svg>
