<svg width="32" height="33" viewBox="0 0 32 33" fill="none" xmlns="http://www.w3.org/2000/svg">
<path d="M22.772 17.5417L15.52 24.7937C15.3902 24.9235 15.3222 25.0763 15.316 25.2523C15.3107 25.4283 15.3818 25.5897 15.5293 25.7363C15.6751 25.8786 15.832 25.951 16 25.9537C16.1671 25.9555 16.3244 25.883 16.472 25.7363L24.5787 17.6297C24.6951 17.5123 24.7769 17.3932 24.824 17.2723C24.8711 17.1515 24.8947 17.019 24.8947 16.875C24.8947 16.731 24.8711 16.5986 24.824 16.4777C24.7769 16.3568 24.6951 16.2381 24.5787 16.1217L16.472 8.01368C16.3476 7.88924 16.196 7.82257 16.0173 7.81368C15.8378 7.80479 15.6747 7.87146 15.528 8.01368C15.3813 8.16035 15.308 8.31857 15.308 8.48835C15.308 8.65901 15.3813 8.81768 15.528 8.96435L22.7733 16.2083H7.33334C7.14311 16.2083 6.98445 16.2719 6.85734 16.399C6.73022 16.5261 6.66667 16.6848 6.66667 16.875C6.66667 17.0652 6.73022 17.2239 6.85734 17.351C6.98445 17.4781 7.14311 17.5417 7.33334 17.5417H22.772Z" fill="#000000"/>
</svg>
