<svg width="55" height="55" viewBox="0 0 55 55" fill="none" xmlns="http://www.w3.org/2000/svg">
<circle cx="27.0723" cy="27.355" r="26.5" stroke="#96722C"/>
<path d="M33.8441 27.5218L26.5921 34.7738C26.4624 34.9035 26.3944 35.0564 26.3881 35.2324C26.3828 35.4084 26.4539 35.5698 26.6015 35.7164C26.7472 35.8586 26.9041 35.9311 27.0721 35.9338C27.2392 35.9355 27.3966 35.8631 27.5441 35.7164L35.6508 27.6098C35.7672 27.4924 35.849 27.3733 35.8961 27.2524C35.9432 27.1315 35.9668 26.9991 35.9668 26.8551C35.9668 26.7111 35.9432 26.5786 35.8961 26.4578C35.849 26.3369 35.7672 26.2182 35.6508 26.1018L27.5441 17.9938C27.4197 17.8693 27.2681 17.8026 27.0895 17.7938C26.9099 17.7849 26.7468 17.8515 26.6001 17.9938C26.4535 18.1404 26.3801 18.2986 26.3801 18.4684C26.3801 18.6391 26.4535 18.7978 26.6001 18.9444L33.8455 26.1884H18.4055C18.2152 26.1884 18.0566 26.252 17.9295 26.3791C17.8024 26.5062 17.7388 26.6649 17.7388 26.8551C17.7388 27.0453 17.8024 27.204 17.9295 27.3311C18.0566 27.4582 18.2152 27.5218 18.4055 27.5218H33.8441Z" fill="#96722C"/>
</svg>
