<svg width="32" height="33" viewBox="0 0 32 33" fill="none" xmlns="http://www.w3.org/2000/svg">
<path d="M9.228 17.5417L16.48 24.7937C16.6098 24.9235 16.6778 25.0763 16.684 25.2523C16.6893 25.4283 16.6182 25.5897 16.4707 25.7363C16.3249 25.8786 16.168 25.951 16 25.9537C15.8329 25.9555 15.6756 25.883 15.528 25.7363L7.42133 17.6297C7.30489 17.5123 7.22311 17.3932 7.176 17.2723C7.12889 17.1515 7.10533 17.019 7.10533 16.875C7.10533 16.731 7.12889 16.5986 7.176 16.4777C7.22311 16.3568 7.30489 16.2381 7.42133 16.1217L15.528 8.01368C15.6524 7.88924 15.804 7.82257 15.9827 7.81368C16.1622 7.80479 16.3253 7.87146 16.472 8.01368C16.6187 8.16035 16.692 8.31857 16.692 8.48835C16.692 8.65901 16.6187 8.81768 16.472 8.96435L9.22667 16.2083H24.6667C24.8569 16.2083 25.0156 16.2719 25.1427 16.399C25.2698 16.5261 25.3333 16.6848 25.3333 16.875C25.3333 17.0652 25.2698 17.2239 25.1427 17.351C25.0156 17.4781 24.8569 17.5417 24.6667 17.5417H9.228Z" fill="#000000"/>
</svg>
