<svg width="18" height="16" viewBox="0 0 18 16" fill="none" xmlns="http://www.w3.org/2000/svg">
<path d="M6.18949 1.6528L5.58004 1.8256C5.03738 1.97963 4.55276 2.27634 4.18323 2.68083C3.81369 3.08532 3.57461 3.58075 3.49414 4.1088C3.24169 5.7632 3.80609 7.6976 5.16694 9.916C6.52439 12.1288 8.01869 13.5544 9.66344 14.1784C10.1919 14.3789 10.7704 14.4323 11.3302 14.3323C11.89 14.2323 12.4075 13.9831 12.8212 13.6144L13.2819 13.2032C13.581 12.9367 13.7672 12.5771 13.8058 12.1911C13.8445 11.8052 13.7329 11.4192 13.4918 11.1048L12.3392 9.6008C12.1834 9.39776 11.964 9.2457 11.7117 9.16593C11.4594 9.08616 11.187 9.08269 10.9325 9.156L9.18914 9.6576L9.14409 9.6656C8.95199 9.692 8.50829 9.3008 7.95579 8.4C7.37779 7.4576 7.25879 6.9064 7.41774 6.764L8.30429 5.9856C8.62816 5.70097 8.84939 5.32816 8.93703 4.91935C9.02466 4.51053 8.97432 4.08616 8.79304 3.7056L8.23034 2.5288C8.06113 2.17468 7.76088 1.89055 7.38555 1.72937C7.01021 1.5682 6.58456 1.54099 6.18949 1.6528ZM7.45684 2.8568L8.01784 4.0336C8.12671 4.26186 8.15705 4.51643 8.10462 4.76172C8.0522 5.007 7.91962 5.23073 7.72544 5.4016L6.83634 6.1808C6.26684 6.688 6.45554 7.5536 7.22054 8.8C7.93964 9.9728 8.59584 10.552 9.30134 10.4512L9.40674 10.4304L11.1815 9.9208C11.2664 9.89628 11.3572 9.89736 11.4414 9.9239C11.5255 9.95045 11.5987 10.0011 11.6507 10.0688L12.8033 11.5728C12.924 11.73 12.98 11.923 12.9607 12.1161C12.9415 12.3092 12.8484 12.4891 12.6988 12.6224L12.2372 13.0336C11.9417 13.2968 11.5721 13.4747 11.1724 13.546C10.7727 13.6173 10.3596 13.5792 9.98219 13.436C8.53889 12.8888 7.17464 11.5872 5.90389 9.516C4.62974 7.44 4.11379 5.6744 4.33564 4.2224C4.39307 3.84515 4.56382 3.49119 4.8278 3.2022C5.09179 2.91321 5.438 2.70123 5.82569 2.5912L6.43514 2.4184C6.63273 2.36252 6.84517 2.37619 7.03284 2.45685C7.22051 2.53751 7.37061 2.67967 7.45514 2.8568" fill="white"/>
</svg>
