<svg width="91" height="69" viewBox="0 0 91 69" fill="none" xmlns="http://www.w3.org/2000/svg">
<path d="M68.4215 0.196289C72.2763 0.196289 75.5445 1.03429 78.226 2.71029C81.0752 4.21868 83.4216 6.22986 85.2652 8.74384C87.1088 11.4254 88.3658 14.526 89.0362 18.0456C89.8742 21.5652 90.2932 25.0009 90.2932 28.3529C90.2932 36.5653 88.1144 44.191 83.7568 51.2302C79.5668 58.2693 73.0305 63.8839 64.1477 68.0739L61.8851 63.5487C66.7455 61.3699 70.9355 58.1855 74.4551 53.9955C78.1422 49.638 80.2372 45.1128 80.74 40.42C81.4104 37.4032 81.4104 34.5541 80.74 31.8725C77.388 35.2245 73.0305 36.9005 67.6673 36.9005C62.4717 36.9005 58.1142 35.3083 54.5946 32.1239C51.075 28.9395 49.3152 24.4143 49.3152 18.5484C49.3152 13.1852 51.075 8.82764 54.5946 5.47566C58.2818 1.95608 62.8907 0.196289 68.4215 0.196289ZM19.6502 0.196289C23.505 0.196289 26.7732 1.03429 29.4548 2.71029C32.3039 4.21868 34.6503 6.22986 36.4939 8.74384C38.3375 11.4254 39.5945 14.526 40.2649 18.0456C41.1029 21.5652 41.5219 25.0009 41.5219 28.3529C41.5219 36.5653 39.3431 44.191 34.9855 51.2302C30.7955 58.2693 24.2592 63.8839 15.3764 68.0739L13.1139 63.5487C17.9742 61.3699 22.1642 58.1855 25.6838 53.9955C29.371 49.638 31.4659 45.1128 31.9687 40.42C32.6391 37.4032 32.6391 34.5541 31.9687 31.8725C28.6168 35.2245 24.2592 36.9005 18.896 36.9005C13.7005 36.9005 9.34289 35.3083 5.82331 32.1239C2.30373 28.9395 0.543945 24.4143 0.543945 18.5484C0.543945 13.1852 2.30373 8.82764 5.82331 5.47566C9.51049 1.95608 14.1195 0.196289 19.6502 0.196289Z" fill="white"/>
</svg>
