<svg width="65" height="65" viewBox="0 0 65 65" fill="none" xmlns="http://www.w3.org/2000/svg">
<path d="M56.3825 24.8037V48.8037C56.3825 50.9255 55.5396 52.9603 54.0393 54.4606C52.5391 55.9609 50.5042 56.8037 48.3825 56.8037H13.7158C11.5941 56.8037 9.55926 55.9609 8.05897 54.4606C6.55868 52.9603 5.71582 50.9255 5.71582 48.8037V24.8037C5.71582 21.8437 7.31582 19.2571 9.71582 17.8704L31.0492 5.55042L52.3825 17.8704C54.7825 19.2571 56.3825 21.8437 56.3825 24.8037ZM10.3025 20.7237L31.0492 34.1371L51.7958 20.7237L31.0492 8.61708L10.3025 20.7237ZM31.0492 37.3637L8.72915 22.8837C8.51582 23.4704 8.38249 24.1371 8.38249 24.8037V48.8037C8.38249 50.2182 8.94439 51.5748 9.94458 52.575C10.9448 53.5752 12.3013 54.1371 13.7158 54.1371H48.3825C49.797 54.1371 51.1535 53.5752 52.1537 52.575C53.1539 51.5748 53.7158 50.2182 53.7158 48.8037V24.8037C53.7158 24.1371 53.5825 23.4704 53.3692 22.8837L31.0492 37.3637Z" fill="#96722C"/>
</svg>
