<svg width="16" height="17" viewBox="0 0 16 17" fill="none" xmlns="http://www.w3.org/2000/svg">
<path d="M12.957 3.21002H3.04362C2.60159 3.21002 2.17767 3.38562 1.86511 3.69818C1.55255 4.01074 1.37695 4.43466 1.37695 4.87669V12.1234C1.37695 12.5654 1.55255 12.9893 1.86511 13.3019C2.17767 13.6144 2.60159 13.79 3.04362 13.79H12.957C13.399 13.79 13.8229 13.6144 14.1355 13.3019C14.448 12.9893 14.6236 12.5654 14.6236 12.1234V4.87669C14.6236 4.43466 14.448 4.01074 14.1355 3.69818C13.8229 3.38562 13.399 3.21002 12.957 3.21002ZM3.04362 3.87669H12.957C13.2092 3.87612 13.4523 3.97157 13.6368 4.14368C13.8213 4.31578 13.9334 4.55163 13.9503 4.80336C12.3036 5.68336 10.6503 6.55669 8.99695 7.43669C8.77364 7.5775 8.53693 7.69585 8.29029 7.79002C8.0969 7.82832 7.89756 7.82494 7.70558 7.7801C7.51359 7.73527 7.33338 7.65001 7.17695 7.53002C6.23029 7.03002 5.28362 6.52336 4.34362 6.02336C3.58362 5.62335 2.81029 5.21669 2.05029 4.81002C2.06559 4.55711 2.17696 4.3196 2.36162 4.1461C2.54627 3.9726 2.79024 3.87623 3.04362 3.87669ZM13.957 12.1234C13.957 12.3886 13.8516 12.6429 13.6641 12.8305C13.4765 13.018 13.2222 13.1234 12.957 13.1234H3.04362C2.7784 13.1234 2.52405 13.018 2.33651 12.8305C2.14898 12.6429 2.04362 12.3886 2.04362 12.1234V5.56669C3.61695 6.39336 5.18362 7.23336 6.75695 8.06669C7.03797 8.23918 7.34061 8.37368 7.65695 8.46669C8.11988 8.54208 8.59437 8.44481 8.99029 8.19336C9.95695 7.68669 10.917 7.17336 11.8836 6.66669C12.577 6.29335 13.2636 5.93336 13.957 5.56669V12.1234Z" fill="white"/>
</svg>
