<svg width="25" height="24" viewBox="0 0 25 24" fill="none" xmlns="http://www.w3.org/2000/svg">
<path d="M13.6875 20.27L13.6295 18H12.1875C10.1028 18 8.33183 17.2713 6.8745 15.814C5.41717 14.3567 4.68817 12.5853 4.6875 10.5C4.68683 8.41467 5.41583 6.64367 6.8745 5.187C8.33317 3.73033 10.1042 3.00133 12.1875 3C13.2302 3 14.2062 3.19533 15.1155 3.586C16.0248 3.976 16.8192 4.51067 17.4985 5.19C18.1778 5.86933 18.7125 6.66333 19.1025 7.572C19.4925 8.482 19.6875 9.458 19.6875 10.5C19.6875 11.5193 19.5378 12.4983 19.2385 13.437C18.9392 14.3757 18.5252 15.2627 17.9965 16.098C17.4678 16.9333 16.8345 17.7033 16.0965 18.408C15.3585 19.1127 14.5555 19.733 13.6875 20.269M14.6875 18.35C15.8708 17.35 16.8335 16.1793 17.5755 14.838C18.3175 13.4967 18.6882 12.0507 18.6875 10.5C18.6875 8.68333 18.0582 7.146 16.7995 5.888C15.5408 4.63 14.0035 4.00067 12.1875 4C10.3715 3.99933 8.83417 4.62867 7.5755 5.888C6.31683 7.14733 5.6875 8.68467 5.6875 10.5C5.6875 12.3153 6.31683 13.853 7.5755 15.113C8.83417 16.373 10.3715 17.002 12.1875 17H14.6875V18.35ZM12.2205 15.571C12.4272 15.571 12.6015 15.5 12.7435 15.358C12.8855 15.216 12.9565 15.0417 12.9565 14.835C12.9565 14.6283 12.8855 14.454 12.7435 14.312C12.6015 14.17 12.4272 14.0987 12.2205 14.098C12.0138 14.098 11.8395 14.1693 11.6975 14.312C11.5548 14.454 11.4835 14.6283 11.4835 14.835C11.4835 15.0417 11.5545 15.216 11.6965 15.358C11.8392 15.5 12.0138 15.571 12.2205 15.571ZM11.7835 12.646H12.6685C12.6938 12.236 12.7725 11.9117 12.9045 11.673C13.0365 11.435 13.3498 11.0683 13.8445 10.573C14.1325 10.2863 14.3605 9.99333 14.5285 9.694C14.6958 9.39533 14.7795 9.05267 14.7795 8.666C14.7795 7.944 14.5305 7.377 14.0325 6.965C13.5345 6.553 12.9322 6.34667 12.2255 6.346C11.6075 6.346 11.0842 6.515 10.6555 6.853C10.2255 7.191 9.9105 7.594 9.7105 8.062L10.5335 8.381C10.6682 8.085 10.8648 7.81533 11.1235 7.572C11.3828 7.32933 11.7502 7.208 12.2255 7.208C12.7908 7.208 13.2085 7.36167 13.4785 7.669C13.7485 7.977 13.8835 8.313 13.8835 8.677C13.8835 9.01167 13.7968 9.29467 13.6235 9.526C13.4508 9.75733 13.2285 10.009 12.9565 10.281C12.4758 10.7043 12.1602 11.0843 12.0095 11.421C11.8588 11.7577 11.7835 12.166 11.7835 12.646Z" fill="white"/>
</svg>
