<svg width="400" height="120" viewBox="0 0 400 120" fill="none" xmlns="http://www.w3.org/2000/svg">
<path d="M400 93.0122C400 107.917 387.917 120 373.012 120H26.9878C12.0828 120 0 107.917 0 93.0122V93.0122C0 78.1073 12.0828 66.0244 26.9878 66.0244H93.9226C108.325 66.0244 119.598 53.7689 126.09 40.9131V40.9131C130.11 32.9521 136.003 25.7181 143.432 19.625C150.86 13.5319 159.68 8.69894 169.386 5.40137C179.092 2.10382 189.494 0.40625 200 0.40625C210.506 0.40625 220.908 2.10382 230.614 5.40137C240.32 8.69894 249.14 13.5319 256.568 19.625C263.997 25.7181 269.89 32.9521 273.91 40.9131V40.9131C280.402 53.7689 291.675 66.0244 306.077 66.0244H373.012C387.917 66.0244 400 78.1073 400 93.0122V93.0122Z" fill="#96722C"/>
</svg>
