<svg width="1921" height="877" viewBox="0 0 1921 877" fill="none" xmlns="http://www.w3.org/2000/svg">
<path d="M2012.07 847.407C2012.07 863.423 1999.09 876.407 1983.07 876.407H-20.9282C-36.9445 876.407 -49.9282 863.423 -49.9282 847.407V95.0249C-49.9282 79.0086 -36.9445 66.0249 -20.9282 66.0249H853.994C868.396 66.0249 879.669 53.7694 886.162 40.9136C890.182 32.9525 896.075 25.7186 903.503 19.6255C910.932 13.5324 919.752 8.69943 929.458 5.40186C939.163 2.10431 949.566 0.406739 960.072 0.406738C970.577 0.406738 980.98 2.10431 990.686 5.40186C1000.39 8.69943 1009.21 13.5324 1016.64 19.6255C1024.07 25.7186 1029.96 32.9525 1033.98 40.9136C1040.47 53.7694 1051.75 66.0249 1066.15 66.0249H1983.07C1999.09 66.0249 2012.07 79.0086 2012.07 95.0249V847.407Z" fill="#96722C"/>
</svg>
