<svg width="44" height="44" viewBox="0 0 44 44" fill="none" xmlns="http://www.w3.org/2000/svg">
<path d="M22.0003 29.3337C23.9452 29.3337 25.8105 28.561 27.1858 27.1858C28.561 25.8105 29.3337 23.9452 29.3337 22.0003C29.3337 20.0554 28.561 18.1901 27.1858 16.8149C25.8105 15.4396 23.9452 14.667 22.0003 14.667C20.0554 14.667 18.1901 15.4396 16.8149 16.8149C15.4396 18.1901 14.667 20.0554 14.667 22.0003C14.667 23.9452 15.4396 25.8105 16.8149 27.1858C18.1901 28.561 20.0554 29.3337 22.0003 29.3337Z" stroke="white" stroke-width="1.5" stroke-linecap="round" stroke-linejoin="round"/>
<path d="M5.5 29.3333V14.6667C5.5 12.2355 6.46577 9.90394 8.18485 8.18485C9.90394 6.46577 12.2355 5.5 14.6667 5.5H29.3333C31.7645 5.5 34.0961 6.46577 35.8151 8.18485C37.5342 9.90394 38.5 12.2355 38.5 14.6667V29.3333C38.5 31.7645 37.5342 34.0961 35.8151 35.8151C34.0961 37.5342 31.7645 38.5 29.3333 38.5H14.6667C12.2355 38.5 9.90394 37.5342 8.18485 35.8151C6.46577 34.0961 5.5 31.7645 5.5 29.3333Z" stroke="white" stroke-width="1.5"/>
<path d="M32.083 11.9352L32.1013 11.915" stroke="white" stroke-width="1.5" stroke-linecap="round" stroke-linejoin="round"/>
</svg>
