<svg width="33" height="33" viewBox="0 0 33 33" fill="none" xmlns="http://www.w3.org/2000/svg">
<g clip-path="url(#clip0_116_463)">
<path d="M14.407 9.09661C14.407 7.25908 14.407 5.60391 14.407 3.95342C14.4247 3.30269 14.2394 2.66262 13.877 2.12215C13.5145 1.58168 12.9928 1.16766 12.3845 0.937637C11.7857 0.69312 11.1288 0.627905 10.4937 0.749915C9.85856 0.871926 9.27248 1.17591 8.80663 1.62495C7.40537 3.02764 7.43807 5.02413 8.99813 6.63723C10.3387 8.03991 11.7306 9.36312 13.0805 10.7471C13.2713 10.9186 13.424 11.1283 13.5285 11.3628C13.633 11.5972 13.687 11.851 13.687 12.1077C13.687 12.3644 13.633 12.6182 13.5285 12.8527C13.424 13.0871 13.2713 13.2969 13.0805 13.4683C12.2444 14.3099 11.2121 14.3099 10.3106 13.4683C9.69409 12.8698 9.10089 12.2573 8.49368 11.6495C7.55951 10.7144 6.70942 9.77925 5.75656 8.92828C5.23911 8.4284 4.56504 8.1228 3.84839 8.06316C3.13175 8.00352 2.41652 8.19351 1.8237 8.60099C1.21563 9.00699 0.760994 9.60524 0.532396 10.3002C0.303798 10.9952 0.314423 11.7468 0.562576 12.435C0.726962 13.1197 1.12273 13.7265 1.68284 14.1525C2.24295 14.5786 2.93297 14.7977 3.636 14.7728C4.57017 14.7728 5.50434 14.7728 6.43851 14.7728H8.64315C7.64826 13.3701 7.37735 13.2018 5.90136 13.1925C5.06995 13.1925 4.23853 13.1925 3.40712 13.1551C3.05382 13.1417 2.71538 13.0093 2.44664 12.7793C2.1779 12.5493 1.99461 12.2352 1.92646 11.888C1.83315 11.5622 1.84227 11.2156 1.95258 10.8952C2.06288 10.5748 2.26903 10.2962 2.54302 10.0972C2.80797 9.86381 3.14358 9.72633 3.49596 9.70683C3.84835 9.68733 4.19705 9.78693 4.48609 9.98965C4.75457 10.1667 5.00078 10.3755 5.21941 10.6115C6.58797 11.9721 7.92384 13.3701 9.32976 14.6933C10.7357 16.0165 12.7115 15.8482 14.1361 14.3614C14.4526 14.0626 14.7064 13.7036 14.8826 13.3053C15.0588 12.9071 15.1538 12.4777 15.162 12.0422C15.1703 11.6068 15.0917 11.174 14.9307 10.7694C14.7698 10.3648 14.5298 9.99634 14.2248 9.68574C13.2906 8.75061 12.3565 7.81549 11.455 6.88036C10.836 6.28799 10.2482 5.66372 9.69409 5.01011C9.45735 4.72813 9.3299 4.37027 9.33504 4.00196C9.34019 3.63366 9.47759 3.27951 9.72211 3.00426C9.91807 2.70495 10.2087 2.48008 10.5474 2.36565C10.8861 2.25121 11.2534 2.25382 11.5905 2.37305C11.9491 2.4492 12.27 2.64828 12.4976 2.93595C12.7253 3.22361 12.8455 3.58182 12.8376 3.94874C12.9009 4.72672 12.9009 5.50857 12.8376 6.28655C12.6414 7.57703 13.3047 8.3298 14.4397 9.14336M23.9916 18.7284C24.7529 19.6635 25.3041 20.5425 26.6306 20.3321C27.4552 20.2315 28.288 20.2174 29.1155 20.2901C29.51 20.3131 29.8894 20.4494 30.2085 20.6828C30.3844 20.8393 30.5269 21.0297 30.6275 21.2426C30.728 21.4555 30.7846 21.6866 30.7938 21.922C30.8029 22.1573 30.7645 22.3921 30.6808 22.6123C30.597 22.8324 30.4698 23.0333 30.3066 23.203C30.1641 23.3845 29.9838 23.5327 29.7782 23.6371C29.5727 23.7416 29.3468 23.7999 29.1163 23.8079C28.8859 23.816 28.6565 23.7735 28.4442 23.6835C28.2319 23.5936 28.0417 23.4583 27.887 23.2871C26.397 21.8564 24.9538 20.3789 23.4918 18.9201C23.1432 18.5269 22.6968 18.2331 22.1979 18.0689C21.699 17.9046 21.1656 17.8757 20.6519 17.985C19.9478 18.1133 19.294 18.4374 18.7653 18.9203C18.2366 19.4032 17.8545 20.0254 17.6626 20.7155C17.1955 22.1182 17.7653 23.217 18.7509 24.1802C20.0556 25.4613 21.3494 26.7487 22.6323 28.0423C23.403 28.8231 23.5665 29.5992 23.0994 30.3473C22.8929 30.6646 22.5917 30.9086 22.2386 31.0445C21.8856 31.1805 21.4987 31.2016 21.133 31.1048C20.3249 30.8991 19.8999 30.2398 19.8859 29.1878C19.8321 28.4641 19.8321 27.7373 19.8859 27.0136C20.0681 25.7418 19.2273 25.1761 18.3025 24.4093C18.3025 25.8494 18.3025 27.1258 18.3025 28.4069C18.2691 29.0466 18.3067 29.6879 18.4146 30.3193C18.5752 30.9617 18.931 31.5384 19.433 31.9697C19.935 32.401 20.5584 32.6657 21.2171 32.7272C21.9297 32.7992 22.647 32.647 23.269 32.2916C23.8911 31.9363 24.387 31.3955 24.6875 30.7448C24.9587 30.1395 25.0306 29.4637 24.8929 28.8149C24.7552 28.166 24.415 27.5778 23.9215 27.1352C22.5202 25.7044 21.0816 24.2877 19.6664 22.8617C18.7322 21.9265 18.6902 20.9213 19.5449 20.0563C20.3997 19.1913 21.4133 19.1819 22.3474 20.1171C23.2816 21.0522 24.2158 21.9873 25.1499 22.9224C25.7816 23.587 26.454 24.2116 27.1631 24.7927C27.708 25.1676 28.3538 25.3684 29.0151 25.3684C29.6763 25.3684 30.3221 25.1676 30.8671 24.7927C31.4099 24.4156 31.8314 23.8886 32.0802 23.2759C32.329 22.6632 32.3944 21.9913 32.2683 21.3421C32.0348 20.0984 30.9651 18.9061 29.6666 18.8172C27.7983 18.691 25.93 18.7845 23.9355 18.7845M18.3305 9.01244C19.5683 8.24564 20.068 7.26376 19.8812 5.9125C19.8298 5.26986 19.8298 4.62412 19.8812 3.98147C19.8701 3.64316 19.9638 3.30971 20.1495 3.02679C20.3351 2.74387 20.6036 2.52533 20.9181 2.40111C21.2909 2.23978 21.7081 2.21312 22.0983 2.32571C22.4886 2.43829 22.8276 2.68311 23.0574 3.01829C23.2847 3.37088 23.3807 3.79231 23.3286 4.20867C23.2765 4.62503 23.0796 5.00974 22.7725 5.29532C21.4179 6.69801 20.0213 8.01186 18.6855 9.40052C18.2659 9.81213 17.9325 10.3033 17.7046 10.8453C17.1254 12.3602 17.8214 14.0621 19.3114 15.0019C19.9354 15.436 20.6941 15.6318 21.45 15.5538C22.2059 15.4757 22.9088 15.129 23.4311 14.5764C24.9117 13.141 26.3503 11.6542 27.831 10.2188C28.095 9.92486 28.457 9.73752 28.8492 9.69189C29.2413 9.64626 29.6366 9.74549 29.9609 9.97095C30.2813 10.1691 30.5278 10.4671 30.6625 10.8192C30.7972 11.1712 30.8127 11.5578 30.7066 11.9195C30.6005 12.2813 30.3786 12.5981 30.0751 12.8213C29.7716 13.0445 29.4033 13.1618 29.0267 13.1551C28.1206 13.1878 27.2051 13.1551 26.2943 13.1831C25.8162 13.1853 25.3507 13.337 24.9629 13.617C24.5752 13.897 24.2846 14.2913 24.1317 14.7448C25.9206 14.7448 27.6909 14.8617 29.4424 14.7448C29.9943 14.6891 30.523 14.4939 30.9787 14.1773C31.4344 13.8608 31.8022 13.4335 32.0475 12.9354C32.2927 12.4374 32.4074 11.8851 32.3806 11.3305C32.3539 10.776 32.1867 10.2373 31.8946 9.76522C31.6328 9.32423 31.2727 8.94977 30.8425 8.67108C30.4122 8.39239 29.9235 8.21701 29.4143 8.15862C28.9052 8.10023 28.3894 8.16042 27.9074 8.33448C27.4253 8.50854 26.9899 8.79177 26.6353 9.16206C25.192 10.5648 23.7954 12.0095 22.3661 13.4262C22.154 13.6883 21.8721 13.8849 21.5531 13.9933C21.234 14.1017 20.8908 14.1175 20.5632 14.0387C18.9003 13.5712 18.4192 11.9113 19.629 10.677C21.0676 9.19479 22.567 7.7734 23.9962 6.28188C24.4876 5.77608 24.8041 5.12601 24.8994 4.42699C24.9948 3.72796 24.8638 3.01675 24.5259 2.39765C24.1879 1.77854 23.6607 1.28412 23.0215 0.986864C22.3823 0.689613 21.6648 0.605175 20.9742 0.745934C19.6991 0.937635 18.4426 2.04108 18.3585 3.34091C18.2417 5.21116 18.3305 7.08141 18.3305 9.00309M8.66183 18.719C6.64402 18.719 4.72431 18.6349 2.8186 18.7658C2.14022 18.9124 1.53406 19.291 1.10439 19.8365C0.576502 20.4898 0.314492 21.3184 0.370785 22.1568C0.427077 22.9951 0.797522 23.7812 1.408 24.3579C2.03214 24.9449 2.86021 25.2655 3.71654 25.2515C4.57287 25.2375 5.39007 24.8901 5.99477 24.283C7.46142 22.8804 8.87202 21.3935 10.3247 19.9674C11.2261 19.0884 12.2444 19.0978 13.0945 19.9674C13.2789 20.1439 13.4253 20.3563 13.5246 20.5916C13.6239 20.8269 13.6739 21.08 13.6718 21.3354C13.6696 21.5908 13.6151 21.8431 13.5118 22.0766C13.4085 22.3102 13.2586 22.52 13.0711 22.6933C12.0482 23.7547 10.9832 24.7787 9.95566 25.8354C9.36108 26.3753 8.817 26.9684 8.3302 27.6074C7.9612 28.1289 7.76302 28.7521 7.76302 29.3912C7.76302 30.0302 7.9612 30.6535 8.3302 31.1749C8.66404 31.7344 9.16363 32.1759 9.7596 32.4382C10.3556 32.7004 11.0183 32.7704 11.6558 32.6384C12.9216 32.4514 14.0473 31.7033 14.1921 30.4783C14.4163 28.5098 14.2528 26.4993 14.2528 24.4467C13.4168 25.12 12.6274 25.7185 12.8049 26.9856C12.9263 27.8102 12.9263 28.6483 12.8049 29.473C12.6979 30.0055 12.4149 30.4865 12.0015 30.8383C11.6533 31.0733 11.2287 31.1669 10.8141 31.1001C10.3994 31.0332 10.0257 30.8109 9.76882 30.4783C9.48209 30.1329 9.34204 29.6888 9.37872 29.2412C9.41539 28.7936 9.62588 28.3783 9.965 28.0843C11.3663 26.6489 12.8095 25.2415 14.2201 23.8061C14.5269 23.4946 14.769 23.1254 14.9323 22.7197C15.0957 22.314 15.1771 21.88 15.1719 21.4426C15.1667 21.0052 15.075 20.5732 14.902 20.1715C14.729 19.7699 14.4782 19.4065 14.1641 19.1024C12.7628 17.6062 10.8151 17.4566 9.35779 18.7518C8.83932 19.2193 8.35355 19.7243 7.86311 20.2152C6.87289 21.1971 5.89669 22.1977 4.89245 23.1702C4.61942 23.4534 4.2559 23.6318 3.86508 23.6746C3.47426 23.7173 3.08084 23.6215 2.75321 23.404C2.44662 23.2114 2.2082 22.9272 2.0716 22.5917C1.935 22.2561 1.9071 21.8861 1.99186 21.5338C2.0658 21.1459 2.28252 20.8 2.59911 20.5645C2.9157 20.329 3.30908 20.221 3.70139 20.262C4.50371 20.2035 5.30922 20.2035 6.11155 20.262C7.39136 20.435 7.97989 19.5981 8.67585 18.719M11.7679 15.9698V17.452L13.0151 17.6764V15.7079C12.548 15.8061 12.179 15.8856 11.7679 15.9651M17.06 21.3187C17.1394 20.9213 17.2235 20.5192 17.3169 20.061H15.2991C15.4346 20.5706 15.5327 20.954 15.6261 21.3187H17.06ZM15.3131 13.3701H17.3309L17.046 12.089H15.6167C15.5233 12.4771 15.4346 12.8605 15.3131 13.3701ZM20.9181 17.4192V15.9558L19.6523 15.7126V17.6951L20.9181 17.4192Z" fill="#96722C"/>
<path fill-rule="evenodd" clip-rule="evenodd" d="M14.4065 9.09656C13.2809 8.283 12.6083 7.53022 12.8044 6.23975C12.8678 5.46177 12.8678 4.67992 12.8044 3.90194C12.8124 3.53501 12.6922 3.17681 12.4645 2.88914C12.2368 2.60148 11.916 2.40239 11.5573 2.32625C11.2203 2.20701 10.853 2.2044 10.5142 2.31884C10.1755 2.43327 9.88493 2.65814 9.68898 2.95746C9.44445 3.2327 9.30705 3.58685 9.30191 3.95516C9.29676 4.32346 9.42421 4.68132 9.66096 4.9633C10.2151 5.61692 10.8028 6.24118 11.4219 6.83355C12.356 7.76868 13.2902 8.7038 14.1917 9.63893C14.4932 9.9514 14.7302 10.3204 14.889 10.7247C15.0478 11.1291 15.1253 11.5608 15.1171 11.9952C15.1088 12.4296 15.015 12.8581 14.841 13.2561C14.6669 13.6541 14.4161 14.0138 14.1029 14.3146C12.7017 15.8014 10.7026 15.9744 9.29663 14.6465C7.8907 13.3187 6.55484 11.9253 5.18628 10.5647C4.96764 10.3287 4.72143 10.1199 4.45296 9.94285C4.16392 9.74013 3.81521 9.64052 3.46283 9.66003C3.11044 9.67953 2.77483 9.81701 2.50988 10.0504C2.23573 10.2513 2.03026 10.532 1.92157 10.8542C1.81288 11.1764 1.80628 11.5244 1.90267 11.8505C1.97082 12.1978 2.1541 12.5119 2.42284 12.7418C2.69158 12.9718 3.03003 13.1042 3.38333 13.1176C4.21474 13.1644 5.04615 13.155 5.87756 13.155C7.35355 13.155 7.62446 13.3093 8.61935 14.7354H6.41471C5.48054 14.7354 4.54637 14.7354 3.6122 14.7354C2.90917 14.7603 2.21916 14.5411 1.65905 14.1151C1.09894 13.689 0.703166 13.0822 0.53878 12.3976C0.293153 11.7084 0.285281 10.9568 0.516419 10.2627C0.747557 9.56856 1.20437 8.97198 1.81392 8.56821C2.40674 8.16073 3.12196 7.97074 3.83861 8.03038C4.55525 8.09002 5.22932 8.39563 5.74678 8.89551C6.68095 9.75582 7.57308 10.705 8.4839 11.6167C9.09111 12.2246 9.68431 12.8417 10.3009 13.4355C11.193 14.2912 12.2346 14.2912 13.0707 13.4355C13.2615 13.2641 13.4142 13.0543 13.5187 12.8199C13.6232 12.5855 13.6772 12.3316 13.6772 12.0749C13.6772 11.8182 13.6232 11.5644 13.5187 11.33C13.4142 11.0955 13.2615 10.8858 13.0707 10.7143C11.7208 9.31164 10.3289 7.99311 8.98835 6.60445C7.42829 4.99136 7.37224 2.99954 8.79685 1.59217C9.2627 1.14313 9.84878 0.839148 10.4839 0.717138C11.119 0.595128 11.7759 0.660339 12.3747 0.904856C12.9831 1.13488 13.5047 1.5489 13.8672 2.08937C14.2296 2.62984 14.4149 3.26992 14.3972 3.92064C14.3972 5.57581 14.3972 7.23098 14.3972 9.06383" fill="#96722C"/>
<path fill-rule="evenodd" clip-rule="evenodd" d="M23.9582 18.6816C25.962 18.6816 27.8304 18.5881 29.6894 18.7144C30.9879 18.8032 32.0575 19.9955 32.291 21.2392C32.4168 21.8891 32.3514 22.5616 32.1026 23.175C31.8539 23.7884 31.4325 24.3163 30.8898 24.6945C30.342 25.0653 29.6947 25.2612 29.0334 25.2561C28.3721 25.2511 27.7279 25.0455 27.1858 24.6664C26.4767 24.0854 25.8043 23.4607 25.1726 22.7962C24.2385 21.8611 23.3043 20.9259 22.3701 19.9908C21.436 19.0557 20.4224 19.0557 19.5676 19.93C18.7129 20.8044 18.7456 21.8003 19.6891 22.7354C21.0903 24.1381 22.5336 25.5782 23.9442 27.0089C24.4377 27.4515 24.7779 28.0398 24.9156 28.6886C25.0533 29.3374 24.9814 30.0133 24.7102 30.6185C24.4097 31.2693 23.9138 31.81 23.2918 32.1654C22.6697 32.5207 21.9524 32.673 21.2398 32.601C20.5811 32.5395 19.9577 32.2748 19.4557 31.8434C18.9537 31.4121 18.5979 30.8354 18.4373 30.193C18.3294 29.5617 18.2918 28.9203 18.3252 28.2807C18.3252 26.9996 18.3252 25.7231 18.3252 24.283C19.2594 25.0498 20.0908 25.6156 19.9086 26.8874C19.8549 27.6111 19.8549 28.3378 19.9086 29.0615C19.9086 30.1135 20.3477 30.7728 21.1557 30.9785C21.5214 31.0754 21.9083 31.0543 22.2614 30.9183C22.6144 30.7823 22.9156 30.5383 23.1221 30.2211C23.5892 29.473 23.4117 28.6968 22.6551 27.916C21.3721 26.6193 20.0783 25.3319 18.7736 24.0539C17.788 23.0907 17.2322 21.9966 17.6853 20.5893C17.8772 19.8991 18.2593 19.2769 18.788 18.794C19.3167 18.3111 19.9705 17.987 20.6746 17.8587C21.1883 17.7494 21.7218 17.7783 22.2206 17.9426C22.7195 18.1069 23.166 18.4006 23.5145 18.7938C24.9765 20.2526 26.4198 21.7301 27.9098 23.1609C28.0644 23.332 28.2546 23.4673 28.4669 23.5573C28.6792 23.6472 28.9086 23.6897 29.1391 23.6817C29.3695 23.6737 29.5954 23.6154 29.801 23.5109C30.0065 23.4064 30.1868 23.2582 30.3293 23.0767C30.4925 22.907 30.6198 22.7061 30.7035 22.486C30.7872 22.2659 30.8256 22.0311 30.8165 21.7957C30.8073 21.5604 30.7507 21.3293 30.6502 21.1163C30.5496 20.9034 30.4071 20.713 30.2312 20.5565C29.9121 20.3232 29.5327 20.1868 29.1382 20.1638C28.3107 20.0912 27.4779 20.1053 26.6533 20.2059C25.3268 20.4163 24.785 19.5186 24.0143 18.6021" fill="#96722C"/>
<path fill-rule="evenodd" clip-rule="evenodd" d="M18.3305 9.01237C18.3305 7.08134 18.2418 5.21108 18.3586 3.35018C18.4426 2.05036 19.6991 0.94691 20.9743 0.755209C21.6627 0.618673 22.3766 0.705546 23.0123 1.00319C23.648 1.30083 24.1722 1.79372 24.5088 2.41017C24.8454 3.02662 24.9767 3.73447 24.8837 4.43078C24.7907 5.12709 24.4782 5.77553 23.9916 6.2818C22.5623 7.77333 21.063 9.19472 19.6244 10.6769C18.4286 11.9113 18.9144 13.5898 20.5585 14.0387C20.8865 14.1134 21.229 14.0938 21.5463 13.9821C21.8637 13.8704 22.143 13.6712 22.3521 13.4075C23.7814 12.0048 25.1547 10.546 26.6213 9.14329C26.9757 8.7737 27.4105 8.49096 27.8918 8.31707C28.3732 8.14319 28.8881 8.08285 29.3966 8.14076C29.9051 8.19867 30.3933 8.37327 30.8234 8.65096C31.2534 8.92865 31.6137 9.30194 31.876 9.74177C32.1677 10.2128 32.3352 10.7504 32.3626 11.3039C32.3901 11.8575 32.2766 12.409 32.0329 12.9067C31.7893 13.4044 31.4233 13.8319 30.9694 14.1493C30.5155 14.4667 29.9885 14.6635 29.4378 14.7213C27.6863 14.8616 25.916 14.7213 24.1271 14.7213C24.2806 14.2682 24.5713 13.8743 24.959 13.5944C25.3466 13.3145 25.8117 13.1625 26.2897 13.1597C27.2238 13.1597 28.116 13.1597 29.0221 13.1316C29.3053 13.1335 29.5846 13.0653 29.8351 12.933C30.0856 12.8008 30.2996 12.6087 30.4581 12.3737C30.6165 12.1387 30.7145 11.8682 30.7434 11.5862C30.7722 11.3042 30.731 11.0194 30.6234 10.7571C30.5157 10.4949 30.3451 10.2634 30.1265 10.0831C29.9079 9.90281 29.6482 9.77939 29.3705 9.72379C29.0928 9.66819 28.8057 9.68214 28.5347 9.7644C28.2637 9.84666 28.0171 9.99468 27.817 10.1953C26.3364 11.6307 24.8978 13.1176 23.4171 14.553C22.8948 15.1055 22.1919 15.4523 21.4361 15.5303C20.6802 15.6084 19.9214 15.4126 19.2974 14.9785C17.8074 14.0433 17.1115 12.3367 17.6906 10.8218C17.9185 10.2798 18.252 9.78868 18.6715 9.37707C20.0074 7.97438 21.404 6.65118 22.7585 5.27187C23.0656 4.98629 23.2625 4.60158 23.3146 4.18522C23.3667 3.76885 23.2707 3.34742 23.0434 2.99484C22.8136 2.65966 22.4746 2.41484 22.0844 2.30225C21.6941 2.18967 21.2769 2.21632 20.9042 2.37765C20.5896 2.50187 20.3212 2.72041 20.1355 3.00333C19.9499 3.28625 19.8562 3.61971 19.8673 3.95802C19.8158 4.60067 19.8158 5.2464 19.8673 5.88905C20.0541 7.24031 19.5543 8.22686 18.3165 8.98899" fill="#96722C"/>
<path fill-rule="evenodd" clip-rule="evenodd" d="M8.66119 18.7283C7.95122 19.6073 7.37671 20.4443 6.0969 20.2713C5.29457 20.2128 4.48906 20.2128 3.68674 20.2713C3.29443 20.2303 2.90105 20.3382 2.58446 20.5738C2.26787 20.8093 2.05116 21.1552 1.97721 21.543C1.89389 21.8953 1.92246 22.2649 2.05894 22.6001C2.19542 22.9354 2.433 23.2196 2.73855 23.4133C3.06619 23.6308 3.45961 23.7265 3.85043 23.6838C4.24126 23.6411 4.60477 23.4627 4.8778 23.1795C5.88204 22.207 6.85825 21.2064 7.84847 20.2245C8.31555 19.7336 8.82468 19.2239 9.34314 18.761C10.8004 17.4659 12.7295 17.6155 14.1494 19.1117C14.4635 19.4158 14.7143 19.7792 14.8873 20.1808C15.0603 20.5825 15.1521 21.0145 15.1573 21.4519C15.1625 21.8892 15.0811 22.3233 14.9177 22.729C14.7543 23.1347 14.5123 23.5039 14.2055 23.8154C12.8042 25.2508 11.3609 26.6582 9.95035 28.0936C9.61123 28.3876 9.40075 28.8029 9.36407 29.2505C9.32739 29.698 9.46745 30.1422 9.75417 30.4875C10.011 30.8202 10.3847 31.0425 10.7994 31.1094C11.2141 31.1762 11.6386 31.0826 11.9868 30.8475C12.4003 30.4957 12.6833 30.0148 12.7902 29.4823C12.9117 28.6576 12.9117 27.8195 12.7902 26.9948C12.6127 25.7277 13.4021 25.1246 14.2382 24.456C14.2382 26.5086 14.4017 28.5191 14.1775 30.4875C14.0327 31.7219 12.907 32.4606 11.6412 32.6477C11.0037 32.7797 10.3409 32.7097 9.74495 32.4475C9.14898 32.1852 8.64939 31.7437 8.31555 31.1842C7.94655 30.6627 7.74837 30.0395 7.74837 29.4004C7.74837 28.7614 7.94655 28.1381 8.31555 27.6167C8.80235 26.9777 9.34643 26.3845 9.94101 25.8446C10.9686 24.7879 12.0335 23.764 13.0565 22.7026C13.2439 22.5293 13.3939 22.3194 13.4972 22.0859C13.6005 21.8524 13.6549 21.6001 13.6571 21.3447C13.6593 21.0893 13.6092 20.8362 13.5099 20.6009C13.4106 20.3656 13.2643 20.1532 13.0798 19.9767C12.2297 19.1257 11.2115 19.1164 10.31 19.9767C8.85737 21.4028 7.44677 22.8756 5.98013 24.2923C5.37542 24.8994 4.55822 25.2468 3.70189 25.2608C2.84557 25.2747 2.01749 24.9542 1.39335 24.3671C0.782874 23.7905 0.412429 23.0044 0.356136 22.166C0.299843 21.3277 0.561854 20.499 1.08974 19.8458C1.52177 19.2984 2.13152 18.9196 2.81329 18.7751C4.719 18.6442 6.63872 18.7283 8.65652 18.7283" fill="#96722C"/>
<path fill-rule="evenodd" clip-rule="evenodd" d="M11.7539 15.9791C12.1649 15.8996 12.5246 15.8201 13.001 15.7219V17.6857L11.7539 17.4613V15.9791Z" fill="#96722C"/>
<path fill-rule="evenodd" clip-rule="evenodd" d="M17.0597 21.3187H15.6258C15.5324 20.954 15.4343 20.5706 15.2988 20.0609H17.3166C17.2232 20.5285 17.1391 20.9212 17.0597 21.3187Z" fill="#96722C"/>
<path fill-rule="evenodd" clip-rule="evenodd" d="M15.3125 13.3701C15.4339 12.8605 15.5227 12.4771 15.6161 12.089H17.0454L17.3303 13.3701H15.3125Z" fill="#96722C"/>
<path fill-rule="evenodd" clip-rule="evenodd" d="M20.9181 17.4379L19.6523 17.7138V15.7313L20.9181 15.9745V17.4379Z" fill="#96722C"/>
</g>
<defs>
<clipPath id="clip0_116_463">
<rect width="32" height="32" fill="white" transform="translate(0.361328 0.68042)"/>
</clipPath>
</defs>
</svg>
