<svg width="121" height="122" viewBox="0 0 121 122" fill="none" xmlns="http://www.w3.org/2000/svg">
<path d="M53.1124 32.1452C53.1124 25.1691 53.1124 18.9189 53.1124 12.6686C53.1842 10.2033 52.4895 7.7771 51.1255 5.72937C49.7615 3.68164 47.7964 2.11488 45.5052 1.24828C43.254 0.315535 40.7817 0.0649617 38.3913 0.527279C36.0009 0.989597 33.7963 2.14471 32.0476 3.85106C26.6716 9.16285 26.9 16.7056 32.7504 22.8142C37.8101 28.126 43.0456 33.1368 48.1229 38.3954C48.8355 39.0461 49.405 39.8399 49.7947 40.7258C50.1844 41.6117 50.3858 42.57 50.3858 43.539C50.3858 44.5081 50.1844 45.4664 49.7947 46.3523C49.405 47.2382 48.8355 48.032 48.1229 48.6826C44.9606 51.8697 41.0955 51.8874 37.7047 48.6826C35.3857 46.434 33.1369 44.0968 30.8705 41.795C27.4446 38.3423 24.1417 34.7126 20.5577 31.4901C18.6126 29.6015 16.0806 28.447 13.3889 28.2212C10.6972 27.9954 8.0107 28.7122 5.7825 30.2507C3.48289 31.778 1.75854 34.0391 0.885712 36.6717C0.0128841 39.3042 0.0421121 42.1558 0.968709 44.7696C1.59302 47.3592 3.08318 49.6531 5.18855 51.2654C7.29392 52.8777 9.88603 53.7101 12.5289 53.6226C16.0426 53.6226 19.5563 53.6226 23.07 53.6226H31.3624C27.6203 48.3108 26.5838 47.6734 21.0497 47.6557C17.9224 47.6557 14.7777 47.6557 11.668 47.4963C10.3391 47.4457 9.06612 46.9443 8.0553 46.0734C7.04448 45.2025 6.35503 44.0131 6.09872 42.698C5.73877 41.4629 5.76489 40.1461 6.17352 38.9264C6.58214 37.7068 7.35349 36.6436 8.38268 35.8812C9.38352 35.0059 10.6447 34.4909 11.9678 34.4172C13.2909 34.3435 14.6008 34.7152 15.6912 35.474C16.697 36.1501 17.6224 36.9402 18.4495 37.8289C23.5971 42.9813 28.6042 48.2754 33.9099 53.2862C39.2156 58.297 46.612 57.6773 51.9705 52.0468C53.1612 50.9153 54.1158 49.5557 54.7785 48.0477C55.4411 46.5396 55.7985 44.9135 55.8295 43.2645C55.8606 41.6155 55.5648 39.9768 54.9595 38.4445C54.3541 36.9122 53.4515 35.517 52.3043 34.3408C48.896 30.7996 45.2768 27.2584 41.886 23.7172C39.5636 21.4735 37.3588 19.1095 35.2803 16.6348C34.3898 15.567 33.9104 14.2118 33.9298 12.8171C33.9491 11.4224 34.4659 10.0812 35.3857 9.03891C36.1248 7.90781 37.218 7.05818 38.4913 6.62507C39.7646 6.19197 41.145 6.20026 42.4131 6.64861C43.7636 6.94066 44.9708 7.69803 45.827 8.79034C46.6831 9.88265 47.1347 11.2416 47.1039 12.6332C47.3521 15.5789 47.3521 18.5405 47.1039 21.4862C46.3836 26.3731 48.8608 29.2237 53.13 32.3223M89.0754 68.6196C91.9216 72.1608 94.0122 75.4718 98.9841 74.6927C102.091 74.3034 105.23 74.25 108.348 74.5334C109.831 74.6235 111.258 75.1396 112.459 76.0207C113.12 76.6115 113.656 77.3311 114.034 78.1359C114.412 78.9408 114.625 79.8145 114.659 80.7043C114.694 81.5942 114.549 82.4818 114.235 83.314C113.92 84.1461 113.442 84.9055 112.828 85.5465C112.294 86.2365 111.617 86.8001 110.843 87.1976C110.07 87.5951 109.219 87.8169 108.352 87.8473C107.484 87.8777 106.62 87.7159 105.821 87.3735C105.023 87.031 104.308 86.5162 103.728 85.8652C98.1233 80.5534 92.6946 74.8521 87.178 69.3455C85.8698 67.8579 84.1935 66.7463 82.3202 66.1243C80.4468 65.5022 78.4434 65.3918 76.5139 65.8043C73.867 66.2988 71.41 67.529 69.4201 69.3562C67.4303 71.1833 65.9867 73.5345 65.2524 76.1446C63.4955 81.4564 65.6564 85.6173 69.3634 89.2825C74.2709 94.1103 79.1316 98.9854 83.9454 103.908C86.8618 106.847 87.4591 109.786 85.7022 112.637C84.9302 113.839 83.8006 114.763 82.4751 115.279C81.1496 115.794 79.6963 115.873 78.3234 115.505C75.2841 114.708 73.6677 112.229 73.6326 108.246C73.4216 105.505 73.4216 102.753 73.6326 100.012C74.3178 95.1786 71.1379 93.0539 67.6768 90.1324C67.6768 95.5858 67.6768 100.437 67.6768 105.271C67.557 107.7 67.7043 110.134 68.1161 112.53C68.7185 114.962 70.057 117.145 71.9458 118.776C73.8347 120.407 76.1803 121.405 78.6572 121.631C81.3381 121.907 84.0375 121.333 86.38 119.991C88.7226 118.649 90.592 116.604 91.7283 114.142C92.7441 111.846 93.0124 109.285 92.4947 106.826C91.9771 104.368 90.7002 102.137 88.847 100.455C83.5764 95.0369 78.1653 89.672 72.8244 84.2717C69.3107 80.7305 69.1526 76.9237 72.3852 73.6481C75.6179 70.3725 79.4127 70.3371 82.9264 73.896C86.4401 77.4549 89.9539 80.9784 93.4676 84.5196C95.8418 87.0317 98.3646 89.3968 101.022 91.602C103.063 93.0414 105.49 93.8223 107.98 93.8412C110.471 93.8602 112.909 93.1164 114.972 91.7082C117.017 90.2834 118.605 88.2882 119.541 85.967C120.477 83.6459 120.721 81.0999 120.242 78.6412C119.381 73.9137 115.358 69.3986 110.456 69.0622C103.429 68.6019 96.4016 68.956 88.9173 68.956M67.9404 31.7557C72.6136 28.8519 74.4935 25.1337 73.7732 19.9989C73.5974 17.5705 73.5974 15.1324 73.7732 12.7041C73.7552 11.4299 74.1219 10.1803 74.8248 9.12098C75.5276 8.06166 76.5333 7.24266 77.7085 6.77255C79.1111 6.16505 80.6792 6.06592 82.1461 6.49201C83.6131 6.91811 84.8883 7.84311 85.7549 9.10974C86.609 10.4496 86.9678 12.0497 86.7687 13.6295C86.5695 15.2094 85.825 16.6682 84.6657 17.7503C79.4654 22.9027 74.1948 28.0197 69.2404 33.2961C67.6537 34.8786 66.3938 36.7622 65.5335 38.8381C63.355 44.5925 65.9903 51.0198 71.5771 54.5787C73.9261 56.2226 76.781 56.9655 79.626 56.6733C82.4711 56.381 85.1186 55.0729 87.0902 52.9852C92.6594 47.5317 98.053 41.9189 103.64 36.4655C104.632 35.3566 105.992 34.6511 107.464 34.4816C108.936 34.312 110.419 34.6901 111.634 35.5448C112.852 36.2867 113.793 37.4144 114.309 38.7518C114.825 40.0892 114.888 41.5612 114.486 42.9381C114.085 44.3149 113.243 45.5192 112.091 46.363C110.94 47.2068 109.543 47.6427 108.12 47.6026C104.694 47.7265 101.25 47.6026 97.8422 47.6026C96.041 47.6094 94.2874 48.1854 92.8282 49.2494C91.3689 50.3135 90.2776 51.8121 89.7079 53.5341C96.4191 53.5341 103.078 53.9767 109.666 53.4278C111.743 53.2199 113.734 52.4824 115.45 51.2849C117.167 50.0874 118.552 48.4692 119.477 46.5829C120.401 44.6965 120.834 42.6041 120.734 40.5026C120.635 38.4011 120.006 36.3598 118.907 34.5709C117.919 32.9066 116.563 31.4946 114.944 30.4447C113.326 29.3948 111.489 28.7354 109.577 28.5178C107.664 28.3002 105.728 28.5303 103.918 29.1902C102.108 29.8501 100.474 30.9219 99.1423 32.3223C93.7136 37.6341 88.4429 43.0875 83.0669 48.4525C82.2824 49.4545 81.2327 50.2123 80.0389 50.6384C78.8451 51.0645 77.556 51.1415 76.3206 50.8605C70.0837 49.0899 68.2566 42.7865 72.8069 38.1121C78.218 32.5171 83.84 27.1167 89.2335 21.4862C91.0612 19.5654 92.234 17.1075 92.5815 14.4694C92.929 11.8312 92.4333 9.15011 91.1662 6.81521C89.8991 4.4803 87.9266 2.61313 85.5351 1.48473C83.1436 0.356325 80.4574 0.0254152 77.8666 0.540038C73.0704 1.26598 68.3444 5.4446 68.0458 10.3846C67.589 17.467 67.9228 24.5494 67.9228 31.8265M31.5733 68.6019C23.966 68.6019 16.7453 68.3009 9.57733 68.7966C7.03402 69.3494 4.76072 70.7766 3.1472 72.8336C1.15768 75.3057 0.169644 78.4447 0.381461 81.6205C0.593278 84.7963 1.98926 87.7738 4.28915 89.9553C6.62316 92.1965 9.73709 93.4244 12.9605 93.3747C16.1839 93.3251 19.2591 92.0018 21.524 89.6897C27.0405 84.3779 32.3638 78.7297 37.8277 73.3294C41.2184 70.0007 45.0484 70.0538 48.2459 73.3294C48.951 73.9892 49.5118 74.7899 49.8926 75.6804C50.2734 76.571 50.4658 77.5317 50.4576 78.5013C50.4493 79.471 50.2405 80.4283 49.8446 81.3121C49.4487 82.1958 48.8743 82.9867 48.1581 83.6343C44.3105 87.6535 40.3049 91.5311 36.4222 95.5327C34.1869 97.5794 32.1459 99.832 30.3259 102.261C28.937 104.232 28.1908 106.589 28.1908 109.007C28.1908 111.424 28.937 113.782 30.3259 115.753C31.581 117.873 33.4593 119.547 35.7006 120.543C37.9419 121.539 40.4351 121.808 42.8348 121.313C47.5959 120.587 51.8299 117.771 52.357 113.132C53.2003 105.678 52.5854 98.0469 52.5854 90.2917C49.4582 92.8237 46.4715 95.1077 47.1391 99.8884C47.6134 103.016 47.6134 106.198 47.1391 109.326C46.7351 111.337 45.6781 113.156 44.1349 114.496C42.821 115.383 41.2225 115.735 39.6611 115.482C38.0996 115.23 36.6913 114.39 35.7195 113.132C34.6485 111.818 34.1267 110.135 34.2644 108.44C34.4021 106.745 35.1885 105.171 36.4573 104.049C41.7279 98.6312 47.1742 93.3017 52.4624 87.8483C53.6309 86.6787 54.5545 85.2845 55.1782 83.7485C55.802 82.2124 56.1133 80.5657 56.0936 78.9061C56.074 77.2464 55.7237 75.6077 55.0638 74.0871C54.4038 72.5664 53.4475 71.1949 52.2516 70.0538C46.981 64.3701 39.6549 63.8036 34.191 68.7081C32.2233 70.4787 30.4137 72.4087 28.5514 74.2501C24.8445 77.986 21.1727 81.7751 17.3954 85.4403C16.3725 86.5184 15.0059 87.1996 13.5349 87.3647C12.0639 87.5298 10.5821 87.1682 9.34893 86.3433C8.19381 85.6157 7.29545 84.5398 6.7814 83.2685C6.26736 81.9972 6.16373 80.5949 6.48523 79.2609C6.75961 77.7902 7.57381 76.4778 8.76554 75.5852C9.95728 74.6927 11.439 74.2855 12.9154 74.4449C15.9328 74.2145 18.9633 74.2145 21.9808 74.4449C26.7946 75.1177 29.0082 71.9483 31.626 68.6019M43.2564 58.2085V63.8035L47.9472 64.6711V57.2169L43.2564 58.2085ZM63.2144 78.3933C63.5131 76.8883 63.8293 75.3833 64.1806 73.6304H56.6262C57.1181 75.578 57.487 77.0299 57.856 78.3933H63.2144ZM56.6262 48.2931H64.2333L63.1617 43.4417H57.7681C57.4343 44.9113 57.0829 46.3631 56.6262 48.2931ZM77.7085 63.6265V58.1908L72.965 57.2523V64.7774L77.7085 63.715" fill="white"/>
</svg>
