<svg width="53" height="53" viewBox="0 0 53 53" fill="none" xmlns="http://www.w3.org/2000/svg">
<path d="M12.9685 10.2328C20.5828 2.61852 32.9328 2.61852 40.5471 10.2328C48.1614 17.8471 48.1614 30.1971 40.5471 37.8114C40.5397 37.8163 40.5335 37.8225 40.5285 37.83L30.2957 47.6635C29.344 48.5767 28.076 49.0862 26.7571 49.0855C25.4382 49.0849 24.1707 48.574 23.22 47.6598L12.9871 37.83L12.9685 37.8114C5.35424 30.1971 5.35424 17.8471 12.9685 10.2328ZM38.5748 12.2014C35.4398 9.06707 31.188 7.30653 26.7549 7.30705C22.3218 7.30757 18.0705 9.06912 14.9362 12.2042C11.8019 15.3392 10.0413 19.591 10.0418 24.0241C10.0424 28.4572 11.8039 32.7085 14.939 35.8428L25.1514 45.6541C25.5837 46.0689 26.1596 46.3006 26.7587 46.3006C27.3579 46.3006 27.9338 46.0689 28.3661 45.6541L38.5822 35.8317C41.713 32.6965 43.4709 28.4466 43.4695 24.0159C43.4681 19.5852 41.7075 15.3346 38.5748 12.2014ZM26.7578 15.665C28.9743 15.665 31.0999 16.5454 32.6672 18.1127C34.2345 19.68 35.115 21.8056 35.115 24.0221C35.115 26.2385 34.2345 28.3642 32.6672 29.9315C31.0999 31.4988 28.9743 32.3792 26.7578 32.3792C24.5414 32.3792 22.4157 31.4988 20.8484 29.9315C19.2812 28.3642 18.4007 26.2385 18.4007 24.0221C18.4007 21.8056 19.2812 19.68 20.8484 18.1127C22.4157 16.5454 24.5414 15.665 26.7578 15.665ZM26.7578 18.4507C26.0262 18.4507 25.3017 18.5948 24.6257 18.8748C23.9498 19.1548 23.3356 19.5651 22.8182 20.0825C22.3009 20.5999 21.8905 21.214 21.6105 21.89C21.3305 22.566 21.1864 23.2904 21.1864 24.0221C21.1864 24.7537 21.3305 25.4782 21.6105 26.1542C21.8905 26.8301 22.3009 27.4443 22.8182 27.9617C23.3356 28.479 23.9498 28.8894 24.6257 29.1694C25.3017 29.4494 26.0262 29.5935 26.7578 29.5935C28.2354 29.5935 29.6526 29.0065 30.6974 27.9617C31.7423 26.9168 32.3292 25.4997 32.3292 24.0221C32.3292 22.5445 31.7423 21.1273 30.6974 20.0825C29.6526 19.0377 28.2354 18.4507 26.7578 18.4507Z" fill="#96722C"/>
</svg>
