<svg width="54" height="50" viewBox="0 0 54 50" fill="none" xmlns="http://www.w3.org/2000/svg">
<g clip-path="url(#clip0_827_625)">
<path d="M26.0596 32.9749V28.5434H25.1853C21.6529 28.5434 18.1204 28.5434 14.588 28.5434C14.2899 28.5434 13.9257 28.5733 13.7137 28.4156C13.4173 28.1881 13.0646 27.8029 13.0646 27.4841C13.0646 27.1653 13.4173 26.7768 13.727 26.5643C13.9637 26.3983 14.3578 26.4182 14.6824 26.4149C16.1594 26.4016 17.638 26.4149 19.0074 26.4149C18.7673 25.0434 18.3898 23.7583 18.3451 22.4616C18.2126 18.5365 20.5623 15.1196 24.2382 13.7365C24.7532 13.5422 24.9519 13.3446 24.932 12.7536C24.8677 11.0988 25.1634 9.44975 25.7985 7.92104C26.4336 6.39232 27.3929 5.02053 28.6099 3.90092C29.8268 2.7813 31.2722 1.9407 32.8457 1.43746C34.4191 0.934223 36.083 0.780418 37.7217 0.986723C43.7572 1.69901 48.2395 7.27278 47.6666 13.348C47.6285 13.7597 47.607 14.1781 47.5756 14.6381C49.9997 15.1594 51.8244 16.4644 52.8941 18.7042C53.2931 19.5255 53.5255 20.4181 53.5778 21.3301C53.6301 22.2422 53.5013 23.1556 53.1988 24.0173C51.8741 28.0021 48.1236 29.616 43.3598 28.2678C40.876 31.459 40.6939 31.5885 37.3988 32.5847V42.5949C42.6047 40.3003 46.4148 42.3608 46.8685 47.7137C47.0209 47.7768 47.2609 47.7984 47.3504 47.9279C47.5838 48.26 47.9431 48.6651 47.8918 48.9855C47.8405 49.306 47.3951 49.6181 47.054 49.8257C46.847 49.9502 46.5158 49.8821 46.241 49.8821H2.37288C1.14756 49.8821 0.621014 49.5783 0.599488 48.871C0.576306 48.1222 1.10948 47.805 2.39441 47.8034C3.08324 47.8034 3.77262 47.8001 4.46256 47.7934C4.53481 47.7829 4.60581 47.7651 4.6745 47.7403V45.1435C3.79194 45.1435 2.91766 45.1435 2.04503 45.1435C0.981983 45.1319 0.599481 44.7483 0.592858 43.6957C0.586235 42.5611 0.586235 41.4271 0.592858 40.2937C0.592858 39.246 0.985301 38.8641 2.05166 38.8525C2.90441 38.8442 3.75716 38.8525 4.67118 38.8525V35.1848C3.82671 35.1848 2.98223 35.1848 2.13776 35.1848C0.943898 35.1848 0.594514 34.8394 0.592858 33.6722C0.592858 31.7363 0.592858 29.7992 0.592858 27.861C0.592858 26.81 0.98198 26.4198 2.04171 26.4082C3.14616 26.3933 4.24894 26.3949 5.35339 26.4082C6.26741 26.4198 6.75257 26.7917 6.76748 27.4575C6.78404 28.1615 6.28894 28.5368 5.32028 28.5434C4.47083 28.5434 3.62139 28.5434 2.71896 28.5434V32.9749H26.0596ZM35.0392 24.1867L35.2396 24.1186V23.3167C35.2396 21.2689 35.2396 19.2212 35.2396 17.1734C35.2396 16.041 35.5707 15.5031 36.2811 15.4881C36.9915 15.4732 37.3508 16.0294 37.3508 17.1319C37.3508 18.2344 37.3508 19.3202 37.3508 20.4144L37.5362 20.514C38.6092 19.4215 39.6756 18.3224 40.7568 17.2381C41.3844 16.6089 42.0384 16.5408 42.4839 17.024C42.9293 17.5071 42.8597 18.0517 42.2305 18.6926C41.1079 19.8349 40.0432 21.0503 38.8195 22.0731C37.6256 23.0693 37.1935 24.2049 37.3292 25.7374C37.465 27.2699 37.3574 28.8041 37.3574 30.3864C37.5243 30.3701 37.6902 30.344 37.8541 30.3084C39.7087 29.7239 41.0002 28.5418 41.6626 26.6938C41.8861 26.0678 42.1759 25.4734 42.9872 25.6511C43.3184 25.7225 43.6231 25.9682 43.9327 26.1492C44.8863 26.6897 45.9888 26.9061 47.0752 26.766C48.1617 26.626 49.1737 26.137 49.96 25.3722C50.7366 24.6164 51.249 23.6294 51.4208 22.558C51.5927 21.4867 51.4148 20.3883 50.9137 19.4265C49.9451 17.6117 48.3836 16.745 46.3535 16.6437C45.3451 16.5956 45.004 16.0826 45.2524 15.1079C45.4111 14.5515 45.5301 13.9844 45.6084 13.4111C45.7743 11.8883 45.5661 10.348 45.0022 8.9244C44.4382 7.50081 43.5354 6.23717 42.3727 5.24366C41.2099 4.25015 39.8224 3.55693 38.3312 3.22444C36.84 2.89195 35.2903 2.93029 33.8172 3.33611C31.6696 3.92226 29.8016 5.25863 28.5501 7.10418C27.2985 8.94973 26.7459 11.183 26.9919 13.4011C27.1674 14.8722 27.0896 15.0614 25.6771 15.435C21.1186 16.6421 18.9412 21.8705 21.319 25.8603C21.5624 26.2687 21.8273 26.4281 22.2992 26.4198C23.7597 26.3916 25.2234 26.3982 26.6839 26.4198C27.7188 26.4315 28.0682 26.8001 28.0764 27.8195C28.0764 28.3309 28.0764 28.8406 28.0764 29.5114C28.9938 29.2092 29.7836 29.0432 30.4824 28.6912C31.2821 28.2894 31.8551 28.4255 32.4694 29.0233C33.198 29.7634 34.1506 30.241 35.1783 30.3814C35.2909 28.6928 35.488 27.1404 33.8768 25.8902C32.428 24.7645 31.2043 23.3366 29.9558 21.9734C29.6826 21.6762 29.5799 21.0586 29.671 20.6452C29.7273 20.3961 30.3052 20.1371 30.6546 20.1271C30.946 20.1172 31.2921 20.4194 31.5371 20.6601C32.7211 21.8224 33.8801 23.0029 35.0392 24.1867ZM23.9782 47.8084C26.1043 47.8084 28.1443 47.8233 30.1827 47.7851C30.3764 47.7851 30.6612 47.478 30.7374 47.2555C31.2921 45.6449 32.3336 44.501 33.8934 43.8435C34.3156 43.6641 34.7677 43.5612 35.2015 43.4251V32.7192C34.1467 32.2676 33.0804 31.9787 32.221 31.3909C31.4494 30.8646 30.8218 30.745 29.9873 31.092C29.3978 31.3361 28.4622 31.2448 28.1973 31.6466C27.8761 32.1314 28.093 32.9749 28.088 33.6689C28.088 34.8793 27.785 35.1815 26.5779 35.1864C25.7086 35.1864 24.8409 35.1864 23.9998 35.1864V38.8508C24.9287 38.8508 25.8079 38.8425 26.6855 38.8508C27.732 38.8658 28.0814 39.2144 28.0864 40.2389C28.0864 41.3723 28.0864 42.5063 28.0864 43.6409C28.0864 44.8214 27.7552 45.1352 26.5497 45.1435C25.7053 45.1435 24.8591 45.1435 23.9815 45.1435L23.9782 47.8084ZM6.8304 38.7844H21.8985V35.2512H6.8304V38.7844ZM2.69081 42.9353H26.0381V41.0591H2.69081V42.9353ZM21.9217 45.2099H6.85358V47.7419H21.9217V45.2099ZM44.7722 47.7735C44.7921 45.9471 43.8665 44.4827 42.3613 43.8833C41.6156 43.5807 40.7932 43.5234 40.0129 43.7198C39.2326 43.9162 38.5346 44.356 38.0197 44.9758C37.5031 45.5935 36.965 45.7213 36.1983 45.5586C34.819 45.2647 33.236 46.3373 32.8568 47.7718L44.7722 47.7735Z" fill="#96722C"/>
<path d="M10.904 27.564C10.8858 28.1119 10.5099 28.4407 9.94195 28.522C9.43361 28.5951 8.87891 28.0156 8.87891 27.4843C8.87891 26.953 9.4303 26.3736 9.94361 26.4499C10.5066 26.5363 10.9007 26.8484 10.904 27.564Z" fill="#96722C"/>
<path d="M36.6141 11.3242C36.7995 11.5849 37.1853 11.9319 37.3095 12.3586C37.4519 12.8401 36.8128 13.4063 36.2796 13.3947C35.7265 13.3814 35.2265 12.8534 35.2861 12.3038C35.3589 11.7028 35.7282 11.389 36.6141 11.3242Z" fill="#96722C"/>
</g>
<defs>
<clipPath id="clip0_827_625">
<rect width="53" height="49" fill="white" transform="translate(0.587891 0.903931)"/>
</clipPath>
</defs>
</svg>
