<svg width="50" height="52" viewBox="0 0 50 52" fill="none" xmlns="http://www.w3.org/2000/svg">
<g clip-path="url(#clip0_827_585)">
<path d="M26.7239 46.7945H9.42176C9.42176 47.7296 9.42176 48.619 9.42176 49.51C9.40737 50.9607 8.49243 51.886 7.06085 51.8958C6.02116 51.8958 4.98146 51.9072 3.94177 51.8958C3.36229 51.9077 2.80153 51.6863 2.38091 51.2795C1.96029 50.8726 1.71366 50.3131 1.69443 49.7221C1.65444 49.0987 1.67524 48.4721 1.67364 47.8455C1.67364 46.9593 1.7824 46.0748 1.06741 45.3291C0.829084 45.0826 0.784297 44.5719 0.777899 44.1786C0.745909 42.5184 0.745909 40.8588 0.777899 39.1997C0.780077 38.8537 0.901863 38.5197 1.1218 38.2564C3.30995 36.1121 4.57519 33.4179 5.61008 30.5735C5.93251 29.6846 6.29928 28.8131 6.70896 27.9624C7.69107 25.9307 9.31939 24.8227 11.5395 24.8014C16.0982 24.759 20.6569 24.7851 25.2155 24.7884C27.8739 24.7884 29.7966 26.1657 30.6955 28.7049C31.0842 29.8016 31.5465 30.8803 31.8312 32.0046C32.4406 34.4149 34.0897 36.1415 35.4525 38.0671C35.7494 38.5001 35.9232 39.0084 35.9548 39.5358C36.0203 41.0045 35.974 42.4732 35.9804 43.942C35.9938 44.3772 35.9087 44.8097 35.7317 45.2059C35.5547 45.6021 35.2906 45.9514 34.9599 46.2266C34.7253 46.4544 34.5794 46.761 34.5488 47.0899C34.4928 47.9287 34.5488 48.7756 34.5232 49.6193C34.4832 50.964 33.5379 51.8958 32.2199 51.904C31.233 51.9154 30.2476 51.904 29.2607 51.904C27.7076 51.904 26.7719 50.9836 26.7303 49.399C26.7063 48.5521 26.7239 47.7149 26.7239 46.7945ZM18.3423 45.1757H27.1398C29.112 45.1757 31.0842 45.1838 33.058 45.1757C34.0561 45.1757 34.3824 44.8166 34.3936 43.7935C34.3936 43.3316 34.3328 42.8584 34.4048 42.408C34.7679 40.1413 34.0321 38.2923 32.4854 36.6751C32.0679 36.2378 31.7192 35.975 31.0874 35.9767C22.9826 35.9995 14.8778 36.0175 6.77454 35.9636C5.5541 35.9636 4.62157 36.1594 3.95137 37.2691C3.62186 37.8191 3.08762 38.2368 2.72613 38.7705C2.48469 39.1115 2.33671 39.512 2.29745 39.9308C2.24307 41.153 2.27186 42.3786 2.27986 43.6042C2.27986 44.8721 2.59017 45.1724 3.8586 45.174L18.3423 45.1757ZM31.0698 34.3905C30.326 32.3637 29.7038 30.4054 28.8912 28.532C28.2882 27.1416 27.0822 26.4007 25.5658 26.3925C20.8792 26.3697 16.1926 26.3697 11.5059 26.3925C9.89042 26.4023 8.74036 27.2607 8.06536 28.7457C7.65268 29.6547 7.29119 30.5882 6.9121 31.52C6.53301 32.4518 6.14592 33.4015 5.75084 34.3741H19.9547C20.78 31.6244 21.9957 30.3287 23.9311 30.376C24.7985 30.4017 25.6484 30.6306 26.4152 31.0451C27.65 31.7321 28.1603 33.0115 28.3682 34.3937L31.0698 34.3905ZM7.84303 46.757C6.39225 46.757 5.01985 46.7423 3.64746 46.7766C3.5035 46.7766 3.25237 47.0523 3.24438 47.2123C3.20279 47.9678 3.21398 48.7283 3.23158 49.4871C3.24437 49.9979 3.5115 50.3031 4.03134 50.3031C5.06624 50.3031 6.11074 50.3471 7.13444 50.2688C7.38716 50.2492 7.79024 49.8429 7.81424 49.585C7.89421 48.6793 7.84303 47.7606 7.84303 46.757ZM28.317 46.7945C28.317 47.7736 28.309 48.632 28.317 49.4953C28.317 50.0208 28.6209 50.2966 29.1168 50.3112C30.1277 50.3243 31.1418 50.3618 32.1463 50.2868C32.4198 50.2672 32.8709 49.9033 32.8933 49.6634C32.9796 48.7283 32.9285 47.7818 32.9285 46.801L28.317 46.7945ZM26.6743 34.3823C26.5799 32.8369 25.5066 31.9084 23.9855 31.9638C23.373 31.9839 22.7927 32.2486 22.3696 32.701C21.9466 33.1533 21.7146 33.7571 21.7237 34.3823H26.6743Z" fill="#96722C"/>
<path d="M40.172 22.037V23.1956C40.172 32.2537 40.172 41.3118 40.172 50.3699C40.172 50.6686 40.252 51.0227 40.1208 51.2512C39.9609 51.5237 39.6266 51.8256 39.3498 51.8452C39.1403 51.8599 38.8236 51.4894 38.6988 51.2218C38.5741 50.9541 38.6604 50.6343 38.6604 50.3357C38.6604 41.2776 38.6604 32.2189 38.6604 23.1597V22.0924C38.3293 22.0729 38.0494 22.0451 37.7695 22.0435C36.0372 22.0435 34.3033 21.9896 32.5726 22.0533C30.4932 22.13 29.0153 20.3887 29.0537 18.4125C29.1443 13.7899 29.1443 9.1662 29.0537 4.54141C29.0427 4.05706 29.1288 3.57553 29.3066 3.12629C29.4844 2.67705 29.7502 2.26955 30.0877 1.92874C30.4252 1.58792 30.8273 1.32095 31.2694 1.14418C31.7116 0.967404 32.1844 0.884537 32.659 0.900652C37.2129 1.00673 41.7763 0.931659 46.3286 0.934923C48.3856 0.934923 49.7324 2.27797 49.7404 4.38801C49.7564 9.12051 49.7564 13.853 49.7404 18.5855C49.7404 20.6466 48.4192 21.9929 46.3894 22.0255C44.3596 22.0582 42.3442 22.037 40.172 22.037ZM39.457 2.5146C37.2449 2.5146 35.0327 2.5146 32.819 2.5146C31.1666 2.5146 30.6228 3.0825 30.6212 4.7813C30.6148 9.24181 30.6148 13.7023 30.6212 18.1628C30.6212 19.8633 31.2242 20.4769 32.8829 20.4785C37.2283 20.4785 41.5742 20.4785 45.9207 20.4785C47.589 20.4785 48.216 19.8551 48.2176 18.1792C48.224 13.7186 48.224 9.25813 48.2176 4.79762C48.2176 3.12003 47.6386 2.52276 46.0135 2.51297C43.8301 2.50644 41.6436 2.5146 39.457 2.5146Z" fill="#96722C"/>
<path d="M8.73086 43.2353C8.2782 43.2353 7.82553 43.2353 7.37286 43.2353C6.35716 43.2189 5.66137 42.7049 5.49821 41.7111C5.39903 41.0672 5.39903 40.4114 5.49821 39.7675C5.64537 38.7884 6.36356 38.2172 7.34887 38.196C8.2814 38.1748 9.21392 38.1731 10.1464 38.196C11.2757 38.2237 11.9635 38.9499 12.0083 40.0955C12.0915 42.4503 11.9059 43.4441 8.73086 43.2353ZM8.77085 39.8083C8.37257 39.8083 7.97109 39.8328 7.576 39.8083C7.00497 39.7642 6.95698 40.1347 7.03056 40.5361C7.10414 40.9376 6.67867 41.6115 7.52482 41.6344C8.32459 41.654 9.12435 41.6589 9.91451 41.623C10.0181 41.6093 10.1169 41.5707 10.2029 41.5102C10.2889 41.4498 10.3595 41.3693 10.4088 41.2754C10.7079 40.1755 10.4264 39.8148 9.32909 39.8067L8.77085 39.8083Z" fill="#96722C"/>
<path d="M27.9429 43.2353C27.4919 43.2353 27.0392 43.2434 26.5865 43.2353C26.3748 43.2396 26.1635 43.2154 25.9579 43.1635C24.915 42.8371 24.4928 41.716 24.7199 39.8997C24.8495 38.87 25.5085 38.2254 26.5242 38.196C27.4839 38.1682 28.4436 38.1699 29.4033 38.196C30.4878 38.2254 31.1916 38.9303 31.2316 40.0384C31.302 42.1876 31.3723 43.4801 27.9429 43.2353ZM29.6864 41.6279C29.6864 41.0926 29.736 40.6797 29.664 40.293C29.6303 40.1823 29.5701 40.082 29.4889 40.0011C29.4076 39.9202 29.3078 39.8612 29.1986 39.8295C28.3748 39.7805 27.5479 39.8116 26.7225 39.8067C26.1163 39.8067 26.2059 40.2603 26.2426 40.6144C26.2794 40.9686 25.9723 41.5936 26.6873 41.6181C27.6374 41.6556 28.5956 41.6279 29.6864 41.6279Z" fill="#96722C"/>
<path d="M18.4072 39.9356C18.9926 39.9356 19.5973 39.8475 20.1587 39.9699C20.493 40.0417 20.7585 40.4431 21.0544 40.6977C20.7761 40.9702 20.5106 41.4565 20.2147 41.4777C18.9686 41.5642 17.713 41.5251 16.4622 41.5038C15.9599 41.4941 15.5936 41.1579 15.7088 40.6748C15.7792 40.3827 16.1887 40.0221 16.4942 39.9715C17.1164 39.8622 17.7738 39.9389 18.4136 39.9389L18.4072 39.9356Z" fill="#96722C"/>
<path d="M37.6847 12.2538C37.6847 13.5251 37.6847 14.687 37.6847 15.844C37.6847 16.1149 37.7679 16.4461 37.6463 16.6436C37.4607 16.9488 37.128 17.3616 36.8641 17.3567C36.6002 17.3519 36.2867 16.9129 36.1427 16.593C36.0212 16.3238 36.1139 15.9533 36.1139 15.6269C36.1139 12.6656 36.1139 9.70316 36.1139 6.73963C36.1139 5.76866 36.3379 5.53856 37.2816 5.53203C38.3197 5.53203 39.361 5.51571 40.3959 5.53203C41.8051 5.55814 42.6832 6.46384 42.6976 7.88196C42.6976 8.58857 42.7088 9.29518 42.6976 10.0034C42.6768 11.273 41.877 12.1706 40.6358 12.2375C39.6857 12.2962 38.7324 12.2538 37.6847 12.2538ZM37.7247 10.7182C38.6732 10.7182 39.5273 10.7704 40.3671 10.6856C40.6326 10.6594 41.0437 10.2857 41.0757 10.0328C41.1555 9.27587 41.1609 8.51269 41.0917 7.75467C41.0773 7.55232 40.8102 7.21288 40.6454 7.20309C39.6857 7.15087 38.7052 7.17698 37.7311 7.17698L37.7247 10.7182Z" fill="#96722C"/>
</g>
<defs>
<clipPath id="clip0_827_585">
<rect width="49" height="51" fill="white" transform="translate(0.751953 0.903931)"/>
</clipPath>
</defs>
</svg>
