<svg width="62" height="63" viewBox="0 0 62 63" fill="none" xmlns="http://www.w3.org/2000/svg">
<path d="M53.6742 39.6263L42.2332 34.4992C41.7149 34.2771 41.1493 34.1878 40.5877 34.2394C40.0261 34.291 39.4862 34.4818 39.017 34.7947C38.9695 34.8254 38.9241 34.8594 38.8814 34.8964L32.9018 39.9823C32.8397 40.0162 32.7706 40.0351 32.7 40.0376C32.6294 40.0401 32.5592 40.0262 32.4949 39.9969C28.6514 38.1417 24.6698 34.1844 22.8074 30.3941C22.7764 30.3308 22.7602 30.2612 22.7602 30.1907C22.7602 30.1202 22.7764 30.0506 22.8074 29.9873L27.9103 23.9326C27.9469 23.8878 27.9809 23.8409 28.012 23.7921C28.3205 23.3211 28.5069 22.7806 28.5542 22.2195C28.6016 21.6584 28.5084 21.0944 28.2832 20.5783L23.1925 9.15671C22.9033 8.48249 22.4034 7.92021 21.7676 7.55427C21.1318 7.18833 20.3944 7.03847 19.6662 7.12718C16.5014 7.54325 13.5963 9.09747 11.4939 11.4994C9.39147 13.9013 8.23558 16.9866 8.24222 20.1787C8.24222 39.1419 23.6696 54.5693 42.6328 54.5693C45.8248 54.5754 48.9098 53.4193 51.3116 51.317C53.7134 49.2147 55.2678 46.3099 55.6843 43.1453C55.7729 42.4205 55.625 41.6865 55.2629 41.0524C54.9007 40.4184 54.3435 39.9182 53.6742 39.6263ZM42.6328 51.663C25.2728 51.663 11.1485 37.5387 11.1485 20.1787C11.1404 17.6937 12.0373 15.2907 13.6717 13.4188C15.3061 11.5468 17.5661 10.334 20.0295 10.0068H20.0852C20.1828 10.0086 20.2776 10.0399 20.3571 10.0965C20.4366 10.1531 20.4972 10.2324 20.5308 10.3241L25.641 21.7335C25.6701 21.7969 25.6852 21.8659 25.6852 21.9357C25.6852 22.0055 25.6701 22.0745 25.641 22.138L20.5284 28.2072C20.4904 28.2507 20.4556 28.2968 20.4242 28.3452C20.1043 28.8336 19.9159 29.3963 19.8773 29.9789C19.8387 30.5615 19.9512 31.1441 20.2039 31.6705C22.3521 36.0686 26.7841 40.4667 31.2307 42.6149C31.7601 42.8662 32.3456 42.9759 32.93 42.9335C33.5145 42.8911 34.078 42.6978 34.5656 42.3727C34.6116 42.3412 34.6576 42.3073 34.7012 42.271L40.6784 37.1851C40.7374 37.1534 40.8026 37.1348 40.8695 37.1306C40.9364 37.1264 41.0034 37.1367 41.0659 37.1609L52.5093 42.288C52.6027 42.3278 52.6813 42.396 52.7339 42.4829C52.7865 42.5698 52.8104 42.6711 52.8023 42.7723C52.4769 45.2369 51.2651 47.4986 49.3936 49.1348C47.5221 50.771 45.1188 51.6697 42.6328 51.663Z" fill="#96722C"/>
</svg>
