<svg width="41" height="54" viewBox="0 0 41 54" fill="none" xmlns="http://www.w3.org/2000/svg">
<g clip-path="url(#clip0_827_549)">
<path d="M39.6788 40.1472C39.5932 39.1917 39.6071 38.5049 39.4429 37.8638C39.3643 37.5494 38.959 37.3175 38.7005 37.0488C38.449 37.3491 38.014 37.6319 37.9843 37.9516C37.9224 38.6492 37.9816 39.3523 38.159 40.0295C38.2446 40.351 38.704 40.7813 38.987 40.7778C39.27 40.7743 39.5442 40.2825 39.6788 40.1472ZM37.3938 31.2296H37.3589C37.4131 31.6898 37.3816 32.1833 37.5493 32.5979C37.6629 32.8789 38.0734 33.239 38.3162 33.2161C38.559 33.1933 38.9416 32.7436 38.9521 32.4696C38.9801 31.6859 38.915 30.9017 38.7582 30.1335C38.7127 29.9087 38.2516 29.6066 38.0018 29.6312C37.752 29.6558 37.4777 30.0071 37.3729 30.2776C37.2681 30.5481 37.3781 30.9116 37.3938 31.2296Z" fill="white"/>
<path d="M31.9467 16.1344C32.1214 18.1824 32.2646 19.9811 32.4166 21.7797C32.7392 25.6264 33.0647 29.4731 33.3931 33.3198C33.8345 38.3866 34.2822 43.4541 34.7364 48.5221C34.829 49.576 34.9251 50.6193 34.9705 51.6697C34.995 52.2107 35.1452 52.4619 35.7391 52.4408C36.8397 52.4004 37.942 52.4285 39.1595 52.4285C39.1298 51.8647 39.1194 51.3746 39.0774 50.8969C38.9342 49.2089 38.7752 47.5191 38.6285 45.8312C38.5848 45.3148 38.5743 44.7773 39.2574 44.6877C39.9404 44.5981 40.0941 45.0987 40.1308 45.6186C40.3439 48.0672 40.5378 50.5157 40.737 52.9642C40.8068 53.8038 40.2898 53.9039 39.6242 53.9022C33.594 53.8952 27.5638 53.8952 21.5335 53.9022C15.0375 53.9022 8.54143 53.9022 2.04538 53.9022C0.710764 53.9022 0.619924 53.7511 0.831296 52.4039C1.49511 48.1884 2.13097 43.9728 2.78081 39.7573C3.32758 36.2092 3.86387 32.6576 4.45432 29.1165C4.56019 28.6779 4.81006 28.2881 5.16355 28.0099C6.66761 26.8103 8.2398 25.6949 9.73862 24.4882C10.1069 24.1869 10.355 23.7622 10.4374 23.292C10.7274 20.3534 10.9317 17.4061 11.1815 14.4622C11.3306 12.7151 11.5053 10.9697 11.7056 9.22615C11.7425 8.91615 11.8844 8.62836 12.1074 8.41114C15.0177 5.93451 17.935 3.4649 20.8942 1.04974C21.1475 0.842472 21.8637 0.853007 22.117 1.06203C25.0535 3.45962 27.969 5.88708 30.8182 8.38831C31.22 8.7396 31.3091 9.51596 31.4191 10.1184C31.5668 10.8362 31.6255 11.5695 31.5938 12.3017C31.5169 13.512 32.02 14.3094 32.9599 15.0243C34.4657 16.1713 35.8929 17.4271 37.3271 18.6672C37.5908 18.8973 37.8668 19.2609 37.9 19.5859C38.0747 21.2721 38.1673 22.9671 38.2966 24.6586C38.335 25.168 38.2791 25.6615 37.6747 25.7125C37.0301 25.7757 36.8641 25.3014 36.824 24.7429C36.7296 23.4308 36.5934 22.1205 36.5148 20.8084C36.4763 20.1866 36.2877 19.7088 35.7793 19.3066C34.5565 18.3423 33.3634 17.3165 31.9467 16.1344ZM22.3004 3.17683V52.3688H33.5259C33.4734 51.7856 33.4228 51.2657 33.3809 50.7458C33.1363 47.7738 32.904 44.8019 32.6489 41.8299C32.3188 37.9867 31.9641 34.1471 31.6322 30.3039C31.3754 27.3337 31.1466 24.36 30.8933 21.3898C30.626 18.2457 30.2994 15.1051 30.0863 11.9575C29.9779 10.3626 29.7875 8.89417 28.1647 8.09321C28.0191 7.99632 27.8849 7.88319 27.7647 7.75597L22.3004 3.17683ZM2.38602 52.4285C4.08223 52.4285 5.64919 52.4022 7.21439 52.4426C7.84152 52.4584 8.00572 52.2089 8.03542 51.6293C8.09481 50.463 8.22234 49.3002 8.32191 48.1357C8.57928 45.1063 8.83723 42.077 9.09577 39.0476C9.36304 35.9914 9.64604 32.9351 9.90807 29.8771C10.0094 28.6844 10.0828 27.49 10.1701 26.1164C8.91235 27.0632 7.86946 27.9063 6.76369 28.6546C6.15054 29.0691 5.89025 29.5855 5.77671 30.2881C4.79729 36.6629 3.80739 43.0354 2.80701 49.4056C2.66028 50.3752 2.53974 51.35 2.38951 52.4285H2.38602ZM9.86265 48.2428C10.1771 48.0566 10.4251 47.9179 10.6662 47.7651C13.2114 46.135 15.6745 44.3522 18.328 42.9242C20.316 41.8563 21.1789 40.5213 20.7859 38.3029C20.6706 37.6512 20.7667 36.9627 20.7667 36.29V35.1026C20.6611 35.1105 20.5567 35.1305 20.4557 35.1623C17.2217 37.2268 13.9923 39.2977 10.7675 41.375C10.6554 41.4567 10.5604 41.5599 10.4882 41.6786C10.4159 41.7974 10.3678 41.9294 10.3465 42.067C10.1666 44.0923 10.0269 46.121 9.86615 48.2428H9.86265ZM20.7387 43.2544C20.6235 43.2674 20.5102 43.2946 20.4016 43.3352C16.9474 45.546 13.4973 47.7633 10.0513 49.987C9.85993 50.1024 9.71893 50.2862 9.65652 50.5017C9.56219 51.1006 9.53948 51.7119 9.48183 52.3477H20.7352L20.7387 43.2544ZM20.7667 26.8366C20.3736 27.0667 20.1273 27.1984 19.8932 27.3477C17.7114 28.7529 15.5854 30.2494 13.332 31.5229C11.7912 32.4011 10.6872 33.3479 10.9475 35.2818C10.9441 35.3411 10.9347 35.4 10.9195 35.4574C10.8164 36.7818 10.7134 38.1062 10.6068 39.4833C10.7318 39.4759 10.8551 39.4517 10.9737 39.4112C14.118 37.4018 17.2624 35.3942 20.3789 33.3602C20.4861 33.2757 20.5744 33.1694 20.6382 33.0484C20.702 32.9274 20.7398 32.7942 20.7492 32.6576C20.7841 30.7817 20.7702 28.9163 20.7702 26.8366H20.7667ZM20.7667 18.82C20.592 18.8323 20.5291 18.82 20.4889 18.8429C17.7405 20.5993 14.9961 22.3558 12.2559 24.1123C12.0707 24.2333 11.9402 24.4225 11.8925 24.6392C11.6846 26.6978 11.5082 28.76 11.3195 30.8625C11.4384 30.8586 11.5561 30.8373 11.6689 30.7992C14.5804 28.9338 17.4918 27.0603 20.4033 25.1785C20.5014 25.1054 20.5832 25.0125 20.6434 24.9057C20.7035 24.7989 20.7408 24.6806 20.7527 24.5585C20.7806 22.6755 20.7702 20.7697 20.7702 18.82H20.7667ZM20.7667 10.7244C20.6164 10.7121 20.5466 10.684 20.5081 10.7069C17.9769 12.314 15.4422 13.9195 12.9284 15.5512C12.7419 15.7181 12.6268 15.9509 12.607 16.2011C12.4777 17.3341 12.3834 18.4705 12.2838 19.6052C12.2087 20.4834 12.1458 21.3617 12.062 22.4243C14.967 20.5625 17.7079 18.8095 20.447 17.0407C20.5295 16.9876 20.6 16.9176 20.6539 16.8353C20.7077 16.753 20.7438 16.6602 20.7597 16.563C20.7736 14.622 20.7649 12.6671 20.7649 10.7244H20.7667ZM12.8114 13.6384C12.9581 13.6279 13.0262 13.6384 13.0682 13.6173C15.5138 12.0564 17.9594 10.4896 20.4051 8.917C20.5588 8.81864 20.7544 8.6184 20.7544 8.46383C20.7789 6.75829 20.7702 5.05099 20.7702 3.32613C20.5955 3.35599 20.5273 3.34721 20.4907 3.37707C18.1428 5.33203 15.7933 7.28524 13.4612 9.25952C13.2823 9.43714 13.1704 9.67192 13.145 9.92347C13.0088 11.1372 12.9197 12.3562 12.8096 13.6384H12.8114Z" fill="#96722C"/>
<path d="M39.6798 40.1471C39.5453 40.2824 39.2728 40.7742 38.9933 40.7777C38.7138 40.7812 38.2508 40.3509 38.1652 40.0295C37.9878 39.3522 37.9287 38.6491 37.9906 37.9515C38.0202 37.6319 38.4552 37.3491 38.7068 37.0487C38.9653 37.3174 39.3706 37.5493 39.4492 37.8637C39.6082 38.5101 39.5942 39.1916 39.6798 40.1471Z" fill="#96722C"/>
<path d="M37.3942 31.2296C37.3785 30.9117 37.272 30.5586 37.3733 30.2829C37.4746 30.0071 37.7698 29.6523 38.0022 29.6365C38.2345 29.6207 38.7131 29.914 38.7586 30.1388C38.9154 30.907 38.9805 31.6913 38.9525 32.4749C38.942 32.749 38.5612 33.1986 38.3166 33.2215C38.072 33.2443 37.6633 32.8842 37.5497 32.6032C37.375 32.1886 37.4135 31.6951 37.3593 31.2349L37.3942 31.2296Z" fill="#96722C"/>
</g>
<defs>
<clipPath id="clip0_827_549">
<rect width="40" height="53" fill="white" transform="translate(0.751953 0.903931)"/>
</clipPath>
</defs>
</svg>
