<svg width="154" height="175" viewBox="0 0 154 175" fill="none" xmlns="http://www.w3.org/2000/svg">
<g clip-path="url(#clip0_116_135)">
<path d="M12.2896 148.388C12.0496 149.32 11.6266 150.194 11.0457 150.959C10.54 151.647 9.86781 152.194 9.09321 152.546C8.2817 152.892 7.4078 153.065 6.52667 153.054C5.6753 153.093 4.82662 152.93 4.0496 152.577C3.27258 152.224 2.58916 151.692 2.05492 151.022C0.866461 149.239 0.311541 147.102 0.480363 144.961V134.551H3.62948V144.865C3.55057 146.048 3.83066 147.227 4.43252 148.245C4.69571 148.591 5.03426 148.871 5.42196 149.064C5.80966 149.256 6.2361 149.356 6.66837 149.356C7.10065 149.356 7.52713 149.256 7.91484 149.064C8.30254 148.871 8.64109 148.591 8.90427 148.245C9.51445 147.266 9.79598 146.114 9.70731 144.961V134.551H12.8564V144.834C12.8812 146.055 12.7327 147.273 12.4156 148.452" fill="white"/>
<path d="M33.7984 152.72L30.7753 146.881H28.3347V152.72H25.1855V134.551H31.6255C32.3569 134.509 33.0885 134.629 33.7686 134.904C34.4487 135.178 35.0609 135.599 35.5619 136.138C36.5566 137.388 37.0559 138.965 36.9633 140.565C37.016 141.827 36.7217 143.079 36.113 144.183C35.6028 145.065 34.8474 145.776 33.9401 146.23L37.3726 152.736L33.7984 152.72ZM33.7984 140.708C33.8253 140.355 33.7821 140.001 33.6712 139.666C33.5604 139.331 33.3841 139.021 33.1528 138.756C32.9128 138.531 32.63 138.357 32.3215 138.245C32.0129 138.133 31.6851 138.086 31.3578 138.105H28.2087V143.342H31.3578C31.6844 143.361 32.011 143.308 32.3154 143.187C32.6198 143.067 32.8948 142.881 33.1213 142.644C33.5515 142.113 33.7703 141.44 33.7354 140.755L33.7984 140.708Z" fill="white"/>
<path d="M60.8174 149.912C60.5866 150.517 60.2202 151.06 59.7467 151.498C59.2643 151.929 58.6948 152.248 58.0777 152.435C57.3736 152.651 56.6409 152.758 55.9048 152.752H49.2129V134.551H55.7473C56.3725 134.518 56.9978 134.613 57.5852 134.831C58.1726 135.05 58.7099 135.386 59.1641 135.82C59.5841 136.284 59.9088 136.827 60.1196 137.418C60.3304 138.009 60.4231 138.636 60.3923 139.264C60.3986 139.728 60.3511 140.191 60.2506 140.644C60.1581 141.019 60.0206 141.382 59.8412 141.723C59.6875 142.031 59.4971 142.319 59.2743 142.58C59.0557 142.812 58.8129 143.02 58.55 143.199C59.3204 143.551 59.9875 144.098 60.4867 144.786C60.993 145.648 61.2341 146.642 61.1796 147.642C61.1905 148.388 61.0678 149.13 60.8174 149.832M57.3376 139.803C57.3567 139.545 57.3186 139.286 57.226 139.044C57.1334 138.803 56.9887 138.585 56.8023 138.407C56.586 138.222 56.3352 138.084 56.0646 137.999C55.7941 137.915 55.5095 137.886 55.2277 137.915H52.1731V141.771H55.023C55.5811 141.793 56.132 141.638 56.5976 141.327C56.8093 141.148 56.9755 140.921 57.0823 140.664C57.1892 140.407 57.2335 140.128 57.2116 139.851L57.3376 139.803ZM58.1249 147.087C58.1356 146.821 58.0921 146.556 57.9974 146.308C57.9026 146.059 57.7585 145.833 57.5738 145.643C57.0787 145.25 56.4535 145.063 55.826 145.119H52.236V149.134H55.9205C56.4861 149.159 57.0427 148.985 57.4951 148.642C57.7022 148.457 57.864 148.226 57.9678 147.967C58.0716 147.708 58.1146 147.429 58.0934 147.15L58.1249 147.087Z" fill="white"/>
<path d="M83.5383 152.72L82.2472 148.626H76.2796L74.9885 152.72H71.8394L77.9014 134.36H80.7514L86.7977 152.72H83.5383ZM79.2713 139.168L77.3976 145.088H81.145L79.2713 139.168Z" fill="white"/>
<path d="M108.18 152.72L101.347 141.12V152.72H98.2764V134.487H101.142L107.755 145.706V134.487H110.826V152.72H108.18Z" fill="white"/>
<path d="M126.792 134.471H123.69V152.704H126.792V134.471Z" fill="white"/>
<path d="M150.174 152.72L148.883 148.626H142.915L141.624 152.72H138.475L144.521 134.36H147.419L153.465 152.72H150.174ZM145.844 139.168L143.97 145.088H147.718L145.844 139.168Z" fill="white"/>
<path d="M39.9705 175.016L37.9708 171.128H36.3963V175.016H34.3179V162.876H38.6164C39.1008 162.846 39.5857 162.926 40.0353 163.11C40.4849 163.294 40.8879 163.578 41.2144 163.94C41.8857 164.763 42.2232 165.812 42.1592 166.875C42.1922 167.709 42.0018 168.537 41.608 169.271C41.259 169.858 40.7509 170.331 40.1437 170.636L42.4426 174.968L39.9705 175.016ZM39.9705 167.082C40.0036 166.608 39.8509 166.141 39.5454 165.78C39.3864 165.629 39.1978 165.513 38.9918 165.439C38.7858 165.365 38.5668 165.336 38.3487 165.352H36.3018V168.827H38.3802C38.5988 168.845 38.8186 168.814 39.0232 168.734C39.2278 168.654 39.4117 168.529 39.5611 168.367C39.8453 168.014 39.991 167.568 39.9705 167.113V167.082Z" fill="white"/>
<path d="M50.1733 175V162.876H57.2431V165.257H52.2203V167.716H56.629V170.081H52.2203V172.636H57.3061V175H50.1733Z" fill="white"/>
<path d="M72.359 175.016L71.493 172.286H67.5408L66.6748 175.016H64.5649L68.5958 162.797H70.501L74.5162 175.016H72.359ZM69.5248 166.002L68.2652 169.938H70.7687L69.5248 166.002Z" fill="white"/>
<path d="M82.1528 175V162.876H84.2155V172.588H88.9077V175H82.1528Z" fill="white"/>
<path d="M99.5832 165.336V175H97.5047V165.336H94.6548V162.876H102.433V165.336H99.5832Z" fill="white"/>
<path d="M114.935 170.176V175H112.857V170.224L109.251 162.876H111.676L113.912 167.748L116.195 162.876H118.541L114.935 170.176Z" fill="white"/>
<path d="M70.2651 28.5795C70.2651 22.3273 70.2651 16.7256 70.2651 11.124C70.3295 8.91447 69.7068 6.73999 68.4844 4.90475C67.2619 3.06951 65.5007 1.66532 63.4473 0.888646C61.4297 0.052688 59.214 -0.171884 57.0716 0.242461C54.9292 0.656805 52.9534 1.69206 51.3862 3.22134C46.568 7.98195 46.7727 14.742 52.016 20.2167C56.5507 24.9773 61.2429 29.4682 65.7934 34.1812C66.432 34.7643 66.9424 35.4757 67.2917 36.2697C67.641 37.0637 67.8214 37.9225 67.8214 38.791C67.8214 39.6595 67.641 40.5184 67.2917 41.3124C66.9424 42.1063 66.432 42.8177 65.7934 43.4009C62.9592 46.2572 59.4952 46.2731 56.4562 43.4009C54.3778 41.3856 52.3624 39.2909 50.3312 37.228C47.2608 34.1336 44.3006 30.8805 41.0885 27.9924C39.3452 26.2998 37.0759 25.265 34.6636 25.0627C32.2512 24.8603 29.8435 25.5027 27.8465 26.8816C25.7855 28.2504 24.2401 30.2769 23.4578 32.6363C22.6756 34.9956 22.7017 37.5513 23.5322 39.8939C24.0917 42.2148 25.4272 44.2706 27.3142 45.7156C29.2011 47.1607 31.5242 47.9067 33.8928 47.8282C37.0419 47.8282 40.191 47.8282 43.3401 47.8282H50.7721C47.4182 43.0676 46.4893 42.4964 41.5294 42.4805C38.7267 42.4805 35.9082 42.4805 33.1213 42.3377C31.9303 42.2923 30.7894 41.8429 29.8834 41.0624C28.9775 40.2819 28.3596 39.2159 28.1299 38.0373C27.8073 36.9303 27.8307 35.7501 28.1969 34.6571C28.5631 33.564 29.2544 32.6111 30.1768 31.9278C31.0738 31.1434 32.2042 30.6818 33.39 30.6157C34.5758 30.5497 35.7497 30.8828 36.727 31.5628C37.6284 32.1688 38.4578 32.8769 39.199 33.6734C43.8125 38.2912 48.3 43.0359 53.0552 47.5268C57.8104 52.0176 64.4393 51.4622 69.2417 46.4159C70.3088 45.4019 71.1644 44.1834 71.7583 42.8318C72.3522 41.4803 72.6724 40.0228 72.7003 38.545C72.7282 37.0671 72.463 35.5984 71.9205 34.2251C71.378 32.8518 70.569 31.6014 69.5408 30.5472C66.4862 27.3735 63.2426 24.1998 60.2037 21.026C58.1223 19.0152 56.1462 16.8965 54.2833 14.6785C53.4853 13.7215 53.0556 12.507 53.073 11.257C53.0903 10.007 53.5535 8.80502 54.3778 7.87087C55.0403 6.85714 56.02 6.09567 57.1612 5.70751C58.3024 5.31935 59.5395 5.32677 60.6761 5.7286C61.8864 5.99035 62.9683 6.66913 63.7357 7.64809C64.503 8.62706 64.9077 9.84496 64.8801 11.0922C65.1025 13.7322 65.1025 16.3865 64.8801 19.0266C64.2345 23.4063 66.4547 25.9612 70.2809 28.7382M102.496 61.269C105.047 64.4428 106.921 67.4102 111.377 66.712C114.161 66.3631 116.975 66.3152 119.769 66.5692C121.099 66.65 122.377 67.1125 123.454 67.9022C124.046 68.4317 124.526 69.0766 124.865 69.7979C125.204 70.5193 125.395 71.3023 125.426 72.0998C125.457 72.8973 125.327 73.6928 125.045 74.4386C124.763 75.1844 124.334 75.865 123.784 76.4395C123.306 77.0579 122.699 77.563 122.006 77.9193C121.312 78.2756 120.55 78.4743 119.772 78.5015C118.995 78.5288 118.221 78.3838 117.505 78.0769C116.789 77.77 116.148 77.3086 115.628 76.7251C110.605 71.9645 105.74 66.8548 100.796 61.9197C99.6234 60.5864 98.121 59.5902 96.4421 59.0327C94.7631 58.4751 92.9675 58.3762 91.2383 58.7459C88.8661 59.1891 86.664 60.2917 84.8806 61.9292C83.0972 63.5667 81.8035 65.674 81.1453 68.0132C79.5708 72.7738 81.5075 76.503 84.8298 79.7878C89.2281 84.1147 93.5843 88.4839 97.8986 92.8954C100.512 95.5296 101.048 98.1638 99.4732 100.719C98.7813 101.796 97.7689 102.625 96.581 103.087C95.393 103.548 94.0905 103.619 92.8601 103.289C90.1361 102.575 88.6875 100.354 88.656 96.7832C88.4669 94.3272 88.4669 91.8602 88.656 89.4042C89.2701 85.0721 86.4201 83.1678 83.3182 80.5495C83.3182 85.4371 83.3182 89.7851 83.3182 94.1172C83.2108 96.294 83.3429 98.476 83.7119 100.623C84.2518 102.803 85.4514 104.759 87.1443 106.221C88.8371 107.682 90.9393 108.577 93.1592 108.78C95.5619 109.027 97.9812 108.513 100.081 107.31C102.18 106.107 103.856 104.274 104.874 102.067C105.784 100.01 106.025 97.7149 105.561 95.5113C105.097 93.3076 103.953 91.3086 102.292 89.801C97.568 84.9451 92.7183 80.1369 87.9317 75.297C84.7826 72.1232 84.6409 68.7115 87.538 65.7758C90.4352 62.84 93.8363 62.8083 96.9854 65.9979C100.135 69.1875 103.284 72.3454 106.433 75.5191C108.561 77.7706 110.822 79.8903 113.203 81.8666C115.032 83.1567 117.207 83.8565 119.44 83.8735C121.672 83.8905 123.857 83.2239 125.705 81.9618C127.538 80.6849 128.962 78.8967 129.801 76.8164C130.64 74.7361 130.858 72.4543 130.429 70.2507C129.658 66.0138 126.052 61.9673 121.659 61.6658C115.361 61.2532 109.062 61.5705 102.355 61.5705M83.5544 28.2304C87.7427 25.6279 89.4275 22.2955 88.782 17.6936C88.6244 15.5172 88.6244 13.3321 88.782 11.1557C88.7659 10.0137 89.0946 8.89381 89.7244 7.94442C90.3543 6.99503 91.2557 6.261 92.309 5.83968C93.566 5.29522 94.9714 5.20638 96.2861 5.58825C97.6008 5.97013 98.7437 6.79915 99.5204 7.93435C100.286 9.13521 100.607 10.5692 100.429 11.9851C100.25 13.401 99.5833 14.7085 98.5442 15.6783C93.8835 20.2961 89.1598 24.8821 84.7196 29.611C83.2975 31.0293 82.1684 32.7174 81.3973 34.5779C79.4448 39.7352 81.8067 45.4956 86.8138 48.6852C88.919 50.1585 91.4777 50.8243 94.0275 50.5624C96.5773 50.3004 98.9501 49.128 100.717 47.257C105.708 42.3694 110.542 37.339 115.549 32.4515C116.439 31.4577 117.657 30.8254 118.977 30.6734C120.296 30.5215 121.625 30.8603 122.714 31.6263C123.806 32.2912 124.649 33.3019 125.112 34.5005C125.574 35.6992 125.63 37.0184 125.271 38.2524C124.911 39.4864 124.156 40.5657 123.124 41.322C122.092 42.0782 120.84 42.4688 119.565 42.4329C116.494 42.544 113.408 42.4329 110.353 42.4329C108.739 42.439 107.168 42.9552 105.86 43.9089C104.552 44.8625 103.574 46.2056 103.063 47.7489C109.078 47.7489 115.046 48.1456 120.95 47.6537C122.812 47.4673 124.596 46.8064 126.134 45.7331C127.673 44.6598 128.914 43.2096 129.743 41.519C130.571 39.8284 130.959 37.9531 130.87 36.0697C130.781 34.1863 130.217 32.3568 129.232 30.7535C128.347 29.2619 127.131 27.9964 125.681 27.0554C124.231 26.1145 122.584 25.5235 120.87 25.3285C119.156 25.1335 117.421 25.3397 115.799 25.9311C114.177 26.5225 112.712 27.4831 111.519 28.7382C106.653 33.4988 101.93 38.3864 97.1114 43.1946C96.4083 44.0926 95.4674 44.7718 94.3975 45.1537C93.3276 45.5356 92.1722 45.6046 91.065 45.3527C85.4754 43.7659 83.8378 38.1166 87.9159 33.9273C92.7656 28.9128 97.8042 24.0728 102.638 19.0266C104.276 17.3051 105.327 15.1022 105.639 12.7378C105.95 10.3734 105.506 7.97053 104.37 5.87791C103.235 3.78529 101.467 2.11187 99.3234 1.10056C97.18 0.0892458 94.7726 -0.207327 92.4507 0.253896C88.1521 0.904512 83.9166 4.64953 83.6489 9.07689C83.2395 15.4244 83.5387 21.7719 83.5387 28.2939M50.961 61.2532C44.1432 61.2532 37.6717 60.9834 31.2475 61.4277C28.9681 61.9231 26.9307 63.2022 25.4846 65.0458C23.7016 67.2613 22.816 70.0746 23.0059 72.9209C23.1957 75.7672 24.4468 78.4357 26.5081 80.3908C28.5999 82.3994 31.3907 83.5 34.2796 83.4554C37.1686 83.4109 39.9246 82.2249 41.9545 80.1528C46.8986 75.3922 51.6696 70.3301 56.5664 65.4901C59.6053 62.5068 63.0379 62.5544 65.9036 65.4901C66.5355 66.0815 67.0381 66.7991 67.3794 67.5972C67.7207 68.3953 67.8932 69.2564 67.8857 70.1254C67.8783 70.9944 67.6912 71.8524 67.3364 72.6445C66.9815 73.4365 66.4667 74.1454 65.8249 74.7257C62.3766 78.3279 58.7866 81.8031 55.3068 85.3895C53.3034 87.2238 51.4742 89.2426 49.8431 91.4196C48.5983 93.186 47.9296 95.2989 47.9296 97.4655C47.9296 99.6321 48.5983 101.745 49.8431 103.512C50.9679 105.412 52.6514 106.912 54.6601 107.805C56.6688 108.697 58.9033 108.938 61.0539 108.494C65.321 107.844 69.1157 105.321 69.5881 101.163C70.3439 94.4822 69.7928 87.6428 69.7928 80.6923C66.9901 82.9615 64.3133 85.0086 64.9116 89.2932C65.3367 92.0962 65.3367 94.9481 64.9116 97.7512C64.5496 99.5542 63.6023 101.184 62.2191 102.385C61.0416 103.18 59.609 103.496 58.2096 103.269C56.8102 103.042 55.548 102.29 54.677 101.163C53.7172 99.9849 53.2495 98.4769 53.3729 96.9577C53.4963 95.4385 54.2011 94.0273 55.3383 93.0223C60.062 88.1665 64.9431 83.39 69.6825 78.5024C70.7298 77.4543 71.5575 76.2047 72.1166 74.8281C72.6756 73.4514 72.9546 71.9755 72.937 70.4881C72.9194 69.0007 72.6055 67.532 72.014 66.1692C71.4225 64.8063 70.5654 63.5771 69.4936 62.5544C64.7699 57.4605 58.204 56.9528 53.3071 61.3484C51.5436 62.9353 49.9218 64.6649 48.2528 66.3153C44.9304 69.6636 41.6396 73.0595 38.2543 76.3443C37.3376 77.3105 36.1128 77.9211 34.7944 78.069C33.476 78.217 32.148 77.8929 31.0428 77.1536C30.0076 76.5015 29.2024 75.5373 28.7417 74.3979C28.281 73.2585 28.1881 72.0018 28.4763 70.8061C28.7222 69.4881 29.4519 68.3119 30.52 67.5119C31.588 66.7119 32.916 66.347 34.2392 66.4898C36.9436 66.2834 39.6595 66.2834 42.3639 66.4898C46.6782 67.0929 48.6621 64.2524 51.0082 61.2532M61.4319 51.9383V56.9528L65.6359 57.7303V51.0496L61.4319 51.9383ZM79.3188 70.0286C79.5865 68.6797 79.8699 67.3309 80.1848 65.7599H73.4142C73.8551 67.5054 74.1858 68.8067 74.5165 70.0286H79.3188ZM73.4142 43.0518H80.2321L79.2716 38.7037H74.4377C74.1385 40.0208 73.8236 41.3221 73.4142 43.0518ZM92.309 56.7941V51.9224L88.0576 51.0813V57.8255L92.309 56.8734" fill="#96722C"/>
<path fill-rule="evenodd" clip-rule="evenodd" d="M70.2649 28.5795C66.4859 25.8025 64.2186 23.2476 64.8642 18.8679C65.0866 16.2278 65.0866 13.5736 64.8642 10.9335C64.8922 9.7134 64.5065 8.52012 63.7708 7.55073C63.0351 6.58133 61.9933 5.89379 60.8175 5.60164C59.681 5.19982 58.4438 5.19239 57.3026 5.58055C56.1614 5.96872 55.1818 6.73018 54.5193 7.74392C53.695 8.67807 53.2318 9.88003 53.2144 11.13C53.1971 12.38 53.6267 13.5946 54.4248 14.5516C56.2876 16.7695 58.2638 18.8882 60.3452 20.8991C63.4943 24.0728 66.6434 27.2465 69.6823 30.4203C70.7104 31.4745 71.5195 32.7248 72.062 34.0982C72.6045 35.4715 72.8696 36.9401 72.8418 38.418C72.8139 39.8959 72.4936 41.3533 71.8997 42.7049C71.3059 44.0564 70.4503 45.2749 69.3831 46.289C64.6595 51.3352 57.9203 51.9065 53.1967 47.3998C48.473 42.8931 43.954 38.1642 39.3405 33.5464C38.5992 32.75 37.7698 32.0418 36.8685 31.4359C35.8912 30.7559 34.7172 30.4227 33.5314 30.4888C32.3456 30.5549 31.2153 31.0164 30.3183 31.8009C29.3959 32.4841 28.7046 33.437 28.3384 34.5301C27.9722 35.6232 27.9487 36.8034 28.2713 37.9103C28.5011 39.089 29.119 40.1549 30.0249 40.9354C30.9308 41.716 32.0717 42.1653 33.2627 42.2107C36.0654 42.3853 38.8682 42.3377 41.6709 42.3536C46.6307 42.3536 47.5597 42.8613 50.9135 47.7172H43.4974C40.3482 47.7172 37.1991 47.7172 34.05 47.7172C31.6814 47.7956 29.3583 47.0496 27.4714 45.6046C25.5845 44.1595 24.2489 42.1037 23.6894 39.7828C22.859 37.4402 22.8328 34.8845 23.615 32.5252C24.3973 30.1658 25.9427 28.1394 28.0037 26.7705C30.0007 25.3917 32.4084 24.7492 34.8208 24.9516C37.2332 25.1539 39.5024 26.1887 41.2458 27.8813C44.3949 30.8011 47.418 34.0225 50.4884 37.1169C52.5196 39.1798 54.535 41.2745 56.6134 43.2898C59.6208 46.2096 63.1164 46.1938 65.9506 43.2898C66.5892 42.7067 67.0996 41.9952 67.4489 41.2013C67.7982 40.4073 67.9786 39.5484 67.9786 38.6799C67.9786 37.8115 67.7982 36.9526 67.4489 36.1586C67.0996 35.3647 66.5892 34.6532 65.9506 34.0701C61.4001 29.3095 56.7079 24.8186 52.1732 20.1056C46.9299 14.6309 46.7252 7.87087 51.5433 3.11026C53.1095 1.57921 55.0854 0.542764 57.2282 0.128335C59.371 -0.286094 61.5872 -0.0604367 63.6045 0.777565C65.6442 1.58554 67.3826 3.01546 68.5767 4.86757C69.7708 6.71968 70.361 8.90146 70.2649 11.1081C70.2649 16.7256 70.2649 22.3273 70.2649 28.5637" fill="#96722C"/>
<path fill-rule="evenodd" clip-rule="evenodd" d="M102.544 61.1104C109.283 61.1104 115.597 60.793 121.848 61.2056C126.241 61.5071 129.847 65.5536 130.618 69.7905C131.047 71.9941 130.829 74.2759 129.99 76.3562C129.151 78.4365 127.728 80.2247 125.895 81.5016C124.046 82.7637 121.862 83.4303 119.629 83.4133C117.397 83.3963 115.222 82.6965 113.393 81.4064C111.014 79.4261 108.754 77.3066 106.622 75.0589C103.473 71.8852 100.324 68.7115 97.1747 65.5377C94.0256 62.364 90.6088 62.364 87.7274 65.3156C84.8459 68.2671 84.9562 71.663 88.121 74.8368C92.8447 79.5974 97.7258 84.4849 102.481 89.3408C104.142 90.8484 105.286 92.8474 105.75 95.0511C106.214 97.2547 105.974 99.5498 105.063 101.607C104.045 103.814 102.369 105.647 100.27 106.85C98.1705 108.053 95.7512 108.566 93.3486 108.32C91.1286 108.117 89.0264 107.222 87.3336 105.761C85.6407 104.299 84.4412 102.343 83.9012 100.163C83.5322 98.0158 83.4002 95.8338 83.5076 93.6571C83.5076 89.3249 83.5076 84.9769 83.5076 80.0893C86.6567 82.7077 89.4594 84.6119 88.8296 88.9441C88.6485 91.4003 88.6485 93.8667 88.8296 96.323C88.8296 99.8935 90.3096 102.115 93.0336 102.829C94.2641 103.159 95.5666 103.088 96.7545 102.626C97.9425 102.165 98.9549 101.336 99.6468 100.258C101.143 97.7036 100.639 95.0694 98.0722 92.4352C93.7475 88.0237 89.3911 83.6545 85.0034 79.3276C81.681 76.0428 79.7916 72.3295 81.3189 67.553C81.9737 65.2121 83.2665 63.1029 85.0505 61.4648C86.8344 59.8268 89.0382 58.7254 91.4118 58.2857C93.1411 57.916 94.9367 58.015 96.6157 58.5725C98.2947 59.13 99.7969 60.1262 100.969 61.4595C105.914 66.3946 110.779 71.425 115.802 76.265C116.32 76.8481 116.959 77.3094 117.674 77.6162C118.389 77.9231 119.162 78.068 119.938 78.0407C120.715 78.0135 121.476 77.8147 122.168 77.4585C122.859 77.1023 123.465 76.5974 123.942 75.9793C124.493 75.4059 124.923 74.7261 125.206 73.9809C125.49 73.2357 125.621 72.4405 125.591 71.643C125.562 70.8455 125.373 70.0622 125.035 69.3403C124.698 68.6183 124.219 67.9726 123.627 67.442C122.551 66.6523 121.272 66.1898 119.943 66.109C117.148 65.855 114.335 65.9029 111.55 66.2518C107.094 66.95 105.252 63.9032 102.67 60.8088" fill="#96722C"/>
<path fill-rule="evenodd" clip-rule="evenodd" d="M83.5546 28.2304C83.5546 21.6766 83.2554 15.3133 83.6648 9.01342C83.9325 4.58605 88.168 0.841046 92.4666 0.190429C94.7885 -0.270793 97.1959 0.0257734 99.3393 1.03709C101.483 2.0484 103.25 3.72182 104.386 5.81444C105.522 7.90706 105.966 10.31 105.655 12.6744C105.343 15.0388 104.292 17.2416 102.654 18.9631C97.8201 24.0093 92.7815 28.8493 87.9318 33.8638C83.8852 38.0531 85.5228 43.7659 91.081 45.2893C92.1881 45.545 93.3446 45.4779 94.4153 45.0957C95.486 44.7136 96.4266 44.0322 97.1273 43.1311C101.945 38.3705 106.669 33.4195 111.534 28.6747C112.728 27.4197 114.193 26.459 115.815 25.8677C117.437 25.2763 119.172 25.07 120.886 25.265C122.6 25.4601 124.246 26.051 125.697 26.992C127.147 27.9329 128.362 29.1984 129.248 30.6901C130.233 32.2933 130.797 34.1228 130.886 36.0062C130.975 37.8896 130.587 39.7649 129.759 41.4555C128.93 43.1461 127.688 44.5964 126.15 45.6696C124.612 46.7429 122.828 47.4038 120.966 47.5902C115.062 48.0822 109.094 47.6854 103.079 47.6854C103.615 46.1637 104.608 44.8479 105.921 43.9209C107.233 42.9938 108.798 42.5015 110.401 42.5122C113.471 42.5122 116.542 42.5122 119.612 42.5122C120.888 42.5482 122.139 42.1576 123.171 41.4013C124.204 40.6451 124.958 39.5658 125.318 38.3318C125.678 37.0978 125.622 35.7785 125.159 34.5799C124.697 33.3812 123.853 32.3706 122.761 31.7057C121.672 30.9397 120.343 30.6008 119.024 30.7528C117.705 30.9047 116.486 31.537 115.597 32.5308C110.606 37.4184 105.756 42.4488 100.764 47.3363C98.9975 49.2074 96.6247 50.3798 94.0749 50.6417C91.525 50.9036 88.9664 50.2378 86.8611 48.7645C81.854 45.5908 79.4922 39.8146 81.4447 34.6572C82.2248 32.825 83.3534 31.1646 84.767 29.7697C89.2702 25.0091 93.9782 20.5024 98.5286 15.837C99.5677 14.8672 100.235 13.5597 100.413 12.1438C100.592 10.7279 100.27 9.2939 99.5049 8.09303C98.7517 6.93378 97.6216 6.07487 96.3086 5.66371C94.9956 5.25254 93.5816 5.31476 92.3091 5.83968C91.2485 6.26734 90.3434 7.01221 89.7157 7.974C89.0879 8.93579 88.7676 10.0683 88.7978 11.2192C88.6403 13.3956 88.6403 15.5807 88.7978 17.7571C89.4434 22.359 87.7586 25.6914 83.5703 28.2939" fill="#96722C"/>
<path fill-rule="evenodd" clip-rule="evenodd" d="M50.9768 61.2532C48.5678 64.2524 46.6468 67.0929 42.3325 66.4899C39.6281 66.2834 36.9121 66.2834 34.2078 66.4899C32.8846 66.347 31.5566 66.712 30.4886 67.5119C29.4205 68.3119 28.6908 69.4881 28.4449 70.8061C28.1567 72.0018 28.2496 73.2585 28.7103 74.3979C29.171 75.5373 29.9762 76.5015 31.0114 77.1536C32.1166 77.8929 33.4446 78.217 34.763 78.069C36.0814 77.9211 37.3061 77.3106 38.2229 76.3443C41.6082 73.0595 44.899 69.6636 48.2214 66.3153C49.8904 64.7284 51.5122 62.9353 53.2757 61.3484C58.1726 56.9528 64.6912 57.4606 69.4622 62.5544C70.534 63.5771 71.3911 64.8063 71.9826 66.1692C72.5741 67.532 72.8879 69.0007 72.9055 70.4881C72.9232 71.9756 72.6442 73.4514 72.0852 74.8281C71.5261 76.2048 70.6984 77.4543 69.6511 78.5025C64.9274 83.39 60.062 88.1665 55.3069 93.0223C54.1697 94.0273 53.4649 95.4386 53.3415 96.9577C53.2181 98.4769 53.6857 99.985 54.6455 101.163C55.5165 102.29 56.7787 103.042 58.1781 103.269C59.5775 103.496 61.0102 103.18 62.1877 102.385C63.5708 101.184 64.5181 99.5542 64.8802 97.7512C65.3052 94.9481 65.3052 92.0962 64.8802 89.2932C64.2818 85.0086 66.9586 82.9457 69.7613 80.6923C69.7613 87.6428 70.3124 94.4822 69.5566 101.163C69.0843 105.352 65.2896 107.844 61.0225 108.494C58.8719 108.938 56.6373 108.698 54.6286 107.805C52.6199 106.912 50.9365 105.412 49.8117 103.512C48.5669 101.745 47.8982 99.6321 47.8982 97.4655C47.8982 95.299 48.5669 93.186 49.8117 91.4196C51.4428 89.2426 53.272 87.2238 55.2754 85.3895C58.7552 81.8031 62.3452 78.3279 65.7934 74.7257C66.4353 74.1454 66.9501 73.4365 67.305 72.6445C67.6598 71.8524 67.8469 70.9945 67.8543 70.1254C67.8617 69.2564 67.6893 68.3953 67.348 67.5972C67.0067 66.7991 66.5041 66.0815 65.8722 65.4901C63.0065 62.602 59.5739 62.5544 56.535 65.4901C51.6381 70.2507 46.8672 75.3287 41.9231 80.1528C39.8932 82.2249 37.1371 83.4109 34.2482 83.4554C31.3593 83.5 28.5685 82.3995 26.4767 80.3908C24.4154 78.4357 23.1643 75.7672 22.9745 72.9209C22.7846 70.0746 23.6702 67.2613 25.4532 65.0458C26.8993 63.2023 28.9367 61.9231 31.2161 61.4277C37.6403 60.9834 44.1118 61.2532 50.9296 61.2532" fill="#96722C"/>
<path fill-rule="evenodd" clip-rule="evenodd" d="M61.4004 51.9383L65.6045 51.0496V57.7303L61.4004 56.9528V51.9383Z" fill="#96722C"/>
<path fill-rule="evenodd" clip-rule="evenodd" d="M79.2877 70.0286H74.4538C74.1231 68.8067 73.7924 67.5054 73.3516 65.7599H80.1537C79.8388 67.3468 79.5554 68.6797 79.2877 70.0286Z" fill="#96722C"/>
<path fill-rule="evenodd" clip-rule="evenodd" d="M73.4141 43.1311C73.8234 41.4014 74.1384 40.1002 74.4375 38.7831H79.2714L80.2319 43.1311H73.4141Z" fill="#96722C"/>
<path fill-rule="evenodd" clip-rule="evenodd" d="M92.3089 56.8734L88.0576 57.8255V51.0813L92.3089 51.9224V56.8734Z" fill="#96722C"/>
</g>
<defs>
<clipPath id="clip0_116_135">
<rect width="153" height="175" fill="white" transform="translate(0.41748)"/>
</clipPath>
</defs>
</svg>
