<svg width="126" height="42" viewBox="0 0 126 42" fill="none" xmlns="http://www.w3.org/2000/svg">
<g clip-path="url(#clip0_1077_2)">
<path d="M9.56355 20.0923C9.3621 20.8459 9.01703 21.5535 8.54729 22.1763C8.12459 22.725 7.57797 23.1659 6.95215 23.4627C6.2884 23.7409 5.57495 23.8809 4.8553 23.8743C4.14812 23.9094 3.44282 23.7747 2.79831 23.4815C2.1538 23.1883 1.58879 22.7452 1.15046 22.1892C0.176661 20.7396 -0.276833 19.0028 -0.135947 17.2622V8.81055H2.43686V17.1722C2.36907 18.1312 2.59813 19.0879 3.09293 19.9122C3.2966 20.2092 3.57204 20.4498 3.89367 20.6117C4.21529 20.7737 4.57265 20.8517 4.93249 20.8384C5.28622 20.8503 5.63752 20.7757 5.95586 20.621C6.2742 20.4663 6.54996 20.2363 6.75918 19.9508C7.25188 19.154 7.48141 18.2224 7.41525 17.288V8.81055H9.98806V17.1593C10.0048 18.1482 9.888 19.1347 9.64073 20.0923" fill="white"/>
<path d="M27.0713 23.6044L24.6014 18.8704H22.6075V23.6044H20.0347V8.81071H25.3089C25.9045 8.77696 26.5003 8.87472 27.0538 9.09704C27.6074 9.31936 28.1053 9.66079 28.5121 10.0971C29.3337 11.1057 29.7428 12.3881 29.657 13.6862C29.699 14.7034 29.4633 15.7129 28.9752 16.6063C28.5778 17.3431 27.9683 17.9436 27.2257 18.3301L30.0429 23.6172L27.0713 23.6044ZM27.0713 13.8663C27.0963 13.5805 27.0624 13.2926 26.9717 13.0204C26.881 12.7483 26.7354 12.4976 26.5439 12.284C26.3496 12.0989 26.1188 11.9565 25.8663 11.8656C25.6137 11.7748 25.3451 11.7377 25.0774 11.7566H22.5046V16.0017H25.0774C25.3455 16.0188 25.6141 15.9757 25.8634 15.8755C26.1127 15.7754 26.3364 15.6207 26.5182 15.4228C26.8699 14.9977 27.0489 14.4559 27.0199 13.9049L27.0713 13.8663Z" fill="white"/>
<path d="M49.0946 21.3145C48.909 21.8065 48.6092 22.2474 48.2198 22.6009C47.8244 22.9478 47.3595 23.2066 46.8562 23.3599C46.2854 23.5354 45.691 23.6222 45.0939 23.6171H39.6138V8.81062H44.9524C45.4644 8.78161 45.977 8.85924 46.4575 9.03861C46.938 9.21797 47.376 9.49515 47.7439 9.8526C48.0854 10.2272 48.3498 10.6653 48.522 11.1421C48.6941 11.6189 48.7707 12.1249 48.7473 12.6312C48.7588 13.0078 48.7199 13.3842 48.6315 13.7504C48.5577 14.0532 48.4499 14.3467 48.3099 14.6252C48.18 14.8712 48.0201 15.1002 47.8339 15.3069C47.6634 15.5022 47.4689 15.6751 47.255 15.8215C47.9513 16.1206 48.5345 16.6331 48.9206 17.2851C49.3067 17.9371 49.4758 18.6949 49.4033 19.4492C49.417 20.0554 49.3121 20.6584 49.0946 21.2244M46.2516 13.1844C46.2646 12.9764 46.2335 12.7681 46.1603 12.573C46.0871 12.3779 45.9736 12.2005 45.8271 12.0523C45.4654 11.7602 45.0035 11.6217 44.5407 11.6664H41.9679V14.7924H44.3092C44.7661 14.8031 45.2153 14.6728 45.5956 14.4193C45.7652 14.2751 45.898 14.0925 45.983 13.8867C46.068 13.6809 46.1027 13.4577 46.0844 13.2358L46.2516 13.1844ZM46.8948 19.1019C46.9068 18.8871 46.8741 18.6722 46.7988 18.4707C46.7235 18.2692 46.6073 18.0855 46.4575 17.9312C46.0522 17.604 45.5355 17.4471 45.0167 17.4939H42.0837V20.7485H45.1067C45.5691 20.7709 46.0246 20.6297 46.3931 20.3497C46.5608 20.1989 46.6912 20.0111 46.7738 19.8012C46.8564 19.5913 46.889 19.3651 46.8691 19.1404L46.8948 19.1019Z" fill="white"/>
<path d="M67.7218 23.6046L66.6669 20.2857H61.7914L60.7237 23.6046H58.1509L63.0907 8.70801H65.4319L70.3718 23.6046H67.7218ZM64.2227 12.6187L62.6919 17.417H65.7664L64.2227 12.6187Z" fill="white"/>
<path d="M87.8542 23.6045L82.2712 14.2009V23.6045H79.7627V8.82373H82.104L87.5069 17.9186V8.82373H90.0154V23.6045H87.8542Z" fill="white"/>
<path d="M103.06 8.81055H100.525V23.5914H103.06V8.81055Z" fill="white"/>
<path d="M122.15 23.6046L121.095 20.2857H116.219L115.165 23.6046H112.592L117.532 8.70801H119.873L124.813 23.6046H122.15ZM118.664 12.6187L117.12 17.417H120.194L118.664 12.6187Z" fill="white"/>
<path d="M32.127 41.6657L30.4804 38.514H29.194V41.6657H27.4702V31.8375H30.9693C31.3654 31.816 31.7616 31.8808 32.1303 32.0274C32.499 32.174 32.8314 32.3989 33.1047 32.6866C33.6417 33.3645 33.9117 34.2157 33.8637 35.0793C33.8907 35.7554 33.7352 36.4264 33.4134 37.0217C33.1323 37.5003 32.7161 37.8852 32.2171 38.1281L34.0952 41.6399L32.127 41.6657ZM32.127 35.2336C32.1425 35.0435 32.1198 34.8523 32.0601 34.6711C32.0005 34.4899 31.9051 34.3225 31.7797 34.1788C31.6498 34.0562 31.4957 33.962 31.3274 33.9022C31.1591 33.8424 30.9802 33.8183 30.802 33.8315H29.1297V36.6487H30.8277C31.0072 36.6611 31.1872 36.6328 31.3542 36.5659C31.5213 36.4991 31.6711 36.3955 31.7926 36.2628C32.032 35.9855 32.1522 35.6249 32.127 35.2594V35.2336Z" fill="white"/>
<path d="M40.4629 41.6655V31.8374H46.2389V33.767H42.1352V35.7609H45.7372V37.6777H42.1352V39.7488H46.2903V41.6655H40.4629Z" fill="white"/>
<path d="M58.5881 41.6656L57.8806 39.4658H54.5874L53.8799 41.6656H52.169L55.4493 31.7603H57.0058L60.2862 41.6656H58.5881ZM56.2597 34.3588L55.2306 37.5491H57.276L56.2597 34.3588Z" fill="white"/>
<path d="M66.5899 41.6655V31.8374H68.2751V39.7102H72.1085V41.6655H66.5899Z" fill="white"/>
<path d="M80.8302 33.8313V41.6655H79.1321V33.8313H76.8037V31.8374H83.1586V33.8313H80.8302Z" fill="white"/>
<path d="M93.3725 37.7549V41.6655H91.6744V37.7935L88.7285 31.8374H90.7096L92.5363 35.7867L94.4016 31.8374H96.3183L93.3725 37.7549Z" fill="white"/>
</g>
<defs>
<clipPath id="clip0_1077_2">
<rect width="125" height="42" fill="white" transform="translate(0.312515)"/>
</clipPath>
</defs>
</svg>
