<svg width="70" height="70" viewBox="0 0 70 70" fill="none" xmlns="http://www.w3.org/2000/svg">
<path fill-rule="evenodd" clip-rule="evenodd" d="M24.9584 22.4064C21.9684 25.3964 21.2497 28.7688 21.9339 32.1354C22.6354 35.5826 24.8377 39.0872 27.8104 42.0513C30.8378 45.0701 34.3166 47.2953 37.7407 48.0026C41.0699 48.6897 44.4394 47.9681 47.5301 44.8947C47.5358 44.8832 47.6709 44.6446 47.4266 43.9172C47.1678 43.1438 46.5756 42.1749 45.6527 41.2578C44.7327 40.3378 43.7581 39.7456 42.9847 39.4868C42.2372 39.2396 41.9986 39.3833 41.9928 39.3833C40.6416 40.7346 39.8854 41.9421 39.7791 43.0116C39.756 43.2359 39.6805 43.4517 39.5587 43.6415C39.4368 43.8313 39.272 43.9898 39.0776 44.1041C38.1547 44.6503 36.8753 44.8631 35.2596 44.3226C33.7042 43.7993 31.8412 42.5832 29.5671 40.3148C27.2901 38.0436 26.0682 36.1892 25.5421 34.6367C24.9987 33.0238 25.2143 31.7444 25.7606 30.8216C25.8752 30.6277 26.0338 30.4634 26.2236 30.3421C26.4133 30.2207 26.629 30.1456 26.8531 30.1229C27.9283 30.0166 29.1473 29.2604 30.4986 27.9178C30.4986 27.9034 30.6366 27.6677 30.3922 26.9403C30.1334 26.1669 29.5412 25.1981 28.6183 24.2809C27.6983 23.3609 26.7237 22.7687 25.9503 22.5099C25.2028 22.2627 24.9642 22.4064 24.9584 22.4064ZM26.8559 19.7816C28.1382 20.2071 29.4808 21.0753 30.6509 22.2426C31.8182 23.4098 32.6922 24.7467 33.1206 26.0261C33.5173 27.2134 33.6582 28.8263 32.5427 29.9361C31.2978 31.1809 29.8028 32.3453 28.1037 32.8053C28.1031 33.1165 28.1586 33.4252 28.2676 33.7167C28.5924 34.6769 29.4751 36.1633 31.5968 38.2764C33.7157 40.3924 35.2078 41.2722 36.1738 41.5971C36.5734 41.7293 36.8724 41.7696 37.0967 41.7609C37.5596 40.0647 38.7297 38.5754 39.9746 37.3334C41.0901 36.2237 42.7001 36.3646 43.8903 36.7584C45.1697 37.1839 46.5123 38.0551 47.6824 39.2223C48.8526 40.3896 49.7237 41.7236 50.1549 43.0029C50.5488 44.1903 50.6926 45.8032 49.5742 46.9158C45.7763 50.7022 41.4121 51.6969 37.1599 50.8172C32.9941 49.9576 29.0381 47.3356 25.7807 44.0897C22.5521 40.8697 19.9674 36.8821 19.1164 32.7076C18.2511 28.4526 19.2113 24.0739 22.9402 20.3566C24.0557 19.2468 25.6686 19.3877 26.8559 19.7816Z" fill="#96722C"/>
<path fill-rule="evenodd" clip-rule="evenodd" d="M34.633 12.8154C30.5096 12.8149 26.4655 13.948 22.9427 16.0909C19.4199 18.2339 16.5541 21.3041 14.6586 24.966C12.7632 28.6278 11.911 32.7404 12.1952 36.8539C12.4795 40.9675 13.8892 44.9237 16.2703 48.2901C16.4128 48.4913 16.5011 48.7257 16.5268 48.9709C16.5525 49.2161 16.5146 49.4638 16.417 49.6902L12.7255 58.2289L23.2393 55.1786C23.594 55.0751 23.975 55.1121 24.3031 55.282C27.328 56.8452 30.6683 57.7011 34.0722 57.7851C37.4761 57.8691 40.8546 57.1791 43.9529 55.7671C47.0513 54.3551 49.7885 52.258 51.9582 49.6339C54.1279 47.0098 55.6735 43.9273 56.4782 40.6189C57.283 37.3104 57.326 33.8625 56.604 30.535C55.8819 27.2075 54.4138 24.0874 52.3102 21.4101C50.2066 18.7327 47.5224 16.568 44.4603 15.0792C41.3981 13.5904 38.0379 12.8163 34.633 12.8154ZM9.26972 35.3037C9.27073 29.7955 11.0648 24.4374 14.3808 20.0393C17.6968 15.6411 22.3544 12.442 27.6496 10.9254C32.9449 9.40882 38.5899 9.65727 43.7314 11.6332C48.873 13.6091 53.2315 17.2051 56.1483 21.8775C59.065 26.55 60.3815 32.045 59.8986 37.5319C59.4156 43.0189 57.1597 48.1995 53.4716 52.2907C49.7836 56.3818 44.8639 59.1612 39.4563 60.2087C34.0487 61.2562 28.447 60.5148 23.4981 58.0967L10.5951 61.8399C10.3335 61.9155 10.0557 61.9152 9.79427 61.839C9.5328 61.7628 9.29835 61.614 9.11821 61.4097C8.93807 61.2055 8.81965 60.9543 8.77675 60.6853C8.73384 60.4164 8.7682 60.1408 8.87584 59.8907L13.4643 49.2762C10.7245 45.1316 9.26566 40.272 9.26972 35.3037Z" fill="#96722C"/>
</svg>
