<svg width="97" height="74" viewBox="0 0 97 74" fill="none" xmlns="http://www.w3.org/2000/svg">
<g clip-path="url(#clip0_984_4244)">
<path d="M17.8399 59.0659C17.6957 58.2922 17.6113 57.5086 17.5876 56.7219C17.621 56.1316 17.621 55.5398 17.5876 54.9495C17.5876 52.4993 17.7992 50.1553 17.7992 50.139C17.924 48.8006 18.1361 47.4719 18.4342 46.1614C21.4871 33.7552 30.6948 24.4362 42.418 21.6593M82.7735 69.2179H55.2891C53.446 69.2794 51.601 69.2467 49.7613 69.1199C49.6066 66.8384 49.6066 64.549 49.7613 62.2675C57.8372 62.2675 80.9743 62.8556 81.8943 61.8755C82.5618 61.1649 82.6432 58.9434 82.7084 57.7019C83.5261 49.0593 81.2678 40.4053 76.3338 33.2733C75.7521 32.3519 75.1245 31.4605 74.4533 30.6026L74.3067 30.4392C74.2334 30.3494 74.1601 30.2596 74.0787 30.1779C72.7622 28.6598 71.3422 27.2353 69.8291 25.9145C64.2036 21.0976 57.1745 18.2379 49.7938 17.7635C49.7368 16.718 49.7938 15.836 49.7938 14.5864C52.2361 13.4266 54.0679 11.8748 54.3854 8.82836C54.5096 7.88074 54.4165 6.91719 54.1134 6.0111C53.8102 5.10501 53.3049 4.28029 52.636 3.59975C51.9671 2.91921 51.1521 2.4008 50.2533 2.08402C49.3544 1.76723 48.3954 1.66043 47.4492 1.77175C43.8915 2.24545 41.6852 5.77376 42.2958 9.62059C42.711 12.1688 44.5998 13.5409 46.7979 14.5864C46.7327 15.6073 46.7979 16.4812 46.7002 17.7635C37.5496 18.5802 30.1411 22.1575 24.5889 27.6868C18.6851 33.6427 14.927 41.4017 13.9078 49.7387C13.549 52.8073 13.549 55.9075 13.9078 58.976C14.0462 59.9316 14.2497 61.5569 14.7219 61.9571C15.3976 62.488 38.0218 62.2512 46.7653 62.2512C46.8569 64.5681 46.8243 66.8882 46.6676 69.2016H13.7205V72.2807H82.863C82.912 71.259 82.8821 70.235 82.7735 69.2179Z" stroke="#97700A" stroke-width="3" stroke-miterlimit="10" stroke-linecap="round"/>
<path d="M70.6445 13.0591C70.6445 13.0591 82.0421 15.2479 85.2985 26.6823" stroke="#97700A" stroke-width="3" stroke-miterlimit="10" stroke-linecap="round"/>
<path d="M74.9824 3.13574C74.9824 3.13574 91.0286 6.21484 95.6202 22.3209" stroke="#97700A" stroke-width="3" stroke-miterlimit="10" stroke-linecap="round"/>
<path d="M27.031 13.0591C27.031 13.0591 15.6334 15.2479 12.377 26.6823" stroke="#97700A" stroke-width="3" stroke-miterlimit="10" stroke-linecap="round"/>
<path d="M22.7256 3.13574C22.7256 3.13574 6.67134 6.21484 2.08789 22.3209" stroke="#97700A" stroke-width="3" stroke-miterlimit="10" stroke-linecap="round"/>
</g>
<defs>
<clipPath id="clip0_984_4244">
<rect width="96" height="73" fill="white" transform="translate(0.841797 0.497559)"/>
</clipPath>
</defs>
</svg>
