<svg width="119" height="66" viewBox="0 0 119 66" fill="none" xmlns="http://www.w3.org/2000/svg">
<g clip-path="url(#clip0_983_4235)">
<path d="M44.7413 54.0144C39.0498 59.2524 32.6998 64.2793 24.6261 64.2793C20.2172 64.2799 15.8978 63.0365 12.1656 60.6922C8.43336 58.3479 5.44015 54.9981 3.5308 51.0289C1.62145 47.0596 0.873665 42.6323 1.37358 38.2571C1.8735 33.8819 3.60078 29.7367 6.35643 26.2992C9.11208 22.8617 12.7839 20.2717 16.949 18.8276C21.1141 17.3835 25.6029 17.1441 29.8983 18.1369C34.1937 19.1298 38.1208 21.3144 41.2274 24.4393C44.3339 27.5641 46.4933 31.502 47.4569 35.7991" stroke="#97700A" stroke-width="3" stroke-miterlimit="10" stroke-linecap="round"/>
<path d="M73.4499 28.3443C79.8731 22.1562 85.6459 17.5435 94.3863 17.5435C98.8423 17.5433 103.206 18.8139 106.964 21.2059C110.721 23.598 113.717 27.0119 115.599 31.0464C117.48 35.0808 118.169 39.568 117.585 43.9802C117.001 48.3925 115.167 52.5464 112.3 55.9535C109.433 59.3606 105.652 61.8792 101.401 63.2131C97.1495 64.5471 92.6054 64.6409 88.3026 63.4836C83.9999 62.3263 80.1174 59.966 77.1118 56.6802C74.1062 53.3944 72.1023 49.3198 71.3359 44.9354" stroke="#97700A" stroke-width="3" stroke-miterlimit="10" stroke-linecap="round"/>
<path d="M77.6363 24.6084L42.3574 56.1501" stroke="#97700A" stroke-width="3" stroke-miterlimit="10" stroke-linecap="round"/>
<path d="M42.358 25.6806L34.4062 6.16602" stroke="#97700A" stroke-width="3" stroke-miterlimit="10" stroke-linecap="round"/>
<path d="M40.748 22.7246H61.1397" stroke="#97700A" stroke-width="3" stroke-miterlimit="10" stroke-linecap="round"/>
<path d="M88.6289 1.71582H75.75L93.3284 40.3796" stroke="#97700A" stroke-width="3" stroke-miterlimit="10" stroke-linecap="round"/>
<path d="M25.9824 5.67067L43.8129 5.17529" stroke="#97700A" stroke-width="3" stroke-miterlimit="10" stroke-linecap="round"/>
</g>
<defs>
<clipPath id="clip0_983_4235">
<rect width="119" height="65" fill="white" transform="translate(0.00585938 0.497559)"/>
</clipPath>
</defs>
</svg>
