<svg width="99" height="95" viewBox="0 0 99 95" fill="none" xmlns="http://www.w3.org/2000/svg">
<g clip-path="url(#clip0_980_4164)">
<path d="M48.9133 40.8915C47.7682 41.9165 47.5147 43.5154 48.349 44.4583C49.1832 45.4013 50.8026 45.3357 51.9477 44.3108C53.0927 43.2858 53.3463 41.6951 52.512 40.7521C51.6778 39.8092 50.0665 39.8502 48.9133 40.8915Z" fill="#97700A"/>
<path d="M47.6041 57.7415C48.5038 58.996 50.0578 59.3814 51.0801 58.6762C52.1025 57.9711 52.2088 56.3311 51.3091 55.0766C50.4094 53.8221 48.8554 53.4367 47.8413 54.1418C46.8271 54.847 46.7126 56.4705 47.6041 57.7415Z" fill="#97700A"/>
<path d="M54.8679 65.5719C53.9928 66.8347 54.1154 68.45 55.1542 69.1633C56.1929 69.8767 57.7387 69.4421 58.6139 68.1712C59.489 66.9002 59.3581 65.2931 58.3276 64.5798C57.2971 63.8664 55.7431 64.301 54.8679 65.5719Z" fill="#97700A"/>
<path d="M48.7331 78.7735C47.858 80.0445 47.9807 81.6516 49.0194 82.3731C50.0581 83.0947 51.6039 82.6437 52.4791 81.381C53.3542 80.1183 53.2234 78.5029 52.1928 77.7814C51.1623 77.0598 49.6083 77.5108 48.7331 78.7735Z" fill="#97700A"/>
<path d="M36.9718 71.7792C37.667 73.1567 39.1392 73.8127 40.2433 73.2469C40.8151 72.8854 41.2216 72.3125 41.3747 71.6524C41.5278 70.9924 41.4152 70.2984 41.0612 69.7211C40.366 68.3436 38.8938 67.6958 37.7897 68.2616C36.6855 68.8273 36.2929 70.4099 36.9718 71.7792Z" fill="#97700A"/>
<path d="M38.1405 31.9701C50.2944 31.3552 48.5196 18.3178 48.5196 18.3014C48.3887 17.3503 52.609 13.8081 53.3124 12.9717C54.9482 11.1186 56.3304 7.97815 56.1505 5.46908C55.8479 1.25449 51.9384 1.50869 49.3947 3.46019C44.8145 6.96142 41.3548 11.6598 37.4698 15.858C31.6464 22.1634 22.4288 29.9612 25.0133 39.6367C26.6491 45.7864 30.7386 51.1162 36.8809 53.33C43.4895 55.7079 50.5807 55.3553 57.4673 54.97C60.8779 54.7732 64.2967 55.0602 67.7073 54.97C70.39 54.9044 73.9724 54.97 75.8863 52.7643C78.7734 49.4844 75.5346 45.6552 71.9686 45.5158C68.2717 45.3601 64.444 45.3765 60.7389 45.4093C59.7258 45.4749 58.7095 45.4749 57.6963 45.4093" stroke="#97700A" stroke-width="3" stroke-miterlimit="10" stroke-linecap="round"/>
<path d="M49.3789 17.3424C58.7601 17.2276 68.1905 17.1948 77.5553 17.3424C80.2299 17.3834 83.4524 17.039 85.1127 19.6137C86.9611 22.4836 85.7752 26.6735 82.9453 27.9445H60.9766" stroke="#97700A" stroke-width="3" stroke-miterlimit="10" stroke-linecap="round"/>
<path d="M82.9124 27.9609C83.573 27.9261 84.2326 28.0475 84.8378 28.3152C85.4431 28.583 85.977 28.9897 86.3966 29.5024C89.0793 33.1922 84.4828 37.2428 80.835 37.0378H58.5801" stroke="#97700A" stroke-width="3" stroke-miterlimit="10" stroke-linecap="round"/>
<path d="M82.3395 37.0542C86.2327 42.2937 79.8859 47.2299 74.8477 46.4755" stroke="#97700A" stroke-width="3" stroke-miterlimit="10" stroke-linecap="round"/>
<path d="M1.6875 77.437H20.8753C21.824 77.4944 24.0078 81.8238 24.5476 82.5699C26.0405 84.6867 27.8566 86.5546 29.9294 88.1046C43.3592 97.9441 65.9167 94.6151 72.9178 78.5604H97.2338" stroke="#97700A" stroke-width="3" stroke-miterlimit="10" stroke-linecap="round"/>
</g>
<defs>
<clipPath id="clip0_980_4164">
<rect width="98" height="94" fill="white" transform="translate(0.460938 0.877441)"/>
</clipPath>
</defs>
</svg>
