<svg width="107" height="89" viewBox="0 0 107 89" fill="none" xmlns="http://www.w3.org/2000/svg">
<g clip-path="url(#clip0_980_4120)">
<path d="M99.958 47.4658H45.3203V66.7799H99.958V47.4658Z" stroke="#97700A" stroke-width="3" stroke-miterlimit="10" stroke-linecap="round"/>
<path d="M105.335 66.7798H39.7227V76.7746H105.335V66.7798Z" stroke="#97700A" stroke-width="3" stroke-miterlimit="10" stroke-linecap="round"/>
<path d="M105.336 87.6566V66.7798" stroke="#97700A" stroke-width="3" stroke-miterlimit="10" stroke-linecap="round"/>
<path d="M39.7227 87.6566V66.7798" stroke="#97700A" stroke-width="3" stroke-miterlimit="10" stroke-linecap="round"/>
<path d="M1.79688 27.7038C1.79688 41.8495 8.05197 53.3094 15.7518 53.3094C23.4516 53.3094 29.7067 41.8495 29.7067 27.7038C29.7067 13.558 23.4516 2.09814 15.7518 2.09814C8.05197 2.09814 1.79688 13.558 1.79688 27.7038Z" stroke="#97700A" stroke-width="3" stroke-miterlimit="10" stroke-linecap="round"/>
<path d="M20.4648 31.936L15.7612 41.7437L10.3105 31.936" stroke="#97700A" stroke-width="3" stroke-miterlimit="10" stroke-linecap="round"/>
<path d="M15.7617 41.6216V87.6564" stroke="#97700A" stroke-width="3" stroke-miterlimit="10" stroke-linecap="round"/>
<path d="M21.6631 87.6567H8.81641" stroke="#97700A" stroke-width="3" stroke-miterlimit="10" stroke-linecap="round"/>
</g>
<defs>
<clipPath id="clip0_980_4120">
<rect width="106" height="88" fill="white" transform="translate(0.566406 0.877441)"/>
</clipPath>
</defs>
</svg>
