<svg width="174" height="68" viewBox="0 0 174 68" fill="none" xmlns="http://www.w3.org/2000/svg">
<g clip-path="url(#clip0_960_419)">
<path d="M2.17773 48.7861L171.581 61.7836V66.751H2.17773V48.7861Z" stroke="white" stroke-width="2" stroke-miterlimit="10" stroke-linecap="round"/>
<path fill-rule="evenodd" clip-rule="evenodd" d="M17.0177 37.8182L12.091 35.6395L10.8594 24.4348C10.8594 24.4348 10.8593 20.7871 18.6065 16.5293C25.9437 15.1533 33.3881 14.445 40.8504 14.4128C40.8504 14.4128 61.0868 11.9229 72.0856 5.83503C72.0856 5.83503 86.6193 -2.51869 116.894 3.41979C116.894 3.41979 136.6 6.35789 154.139 16.2305L167.577 17.5999L168.291 27.099L172.713 31.8797L170.348 43.545L159.46 45.6863C159.46 45.6863 161.345 28.2568 145.53 27.0119C145.53 27.0119 128.471 25.2316 128.964 45.4747L47.4768 39.9097C47.4768 39.9097 51.7138 22.1191 35.0862 19.6915C34.9754 19.6666 16.4142 17.2514 17.0177 37.8182Z" stroke="white" stroke-width="2" stroke-miterlimit="10" stroke-linecap="round"/>
<path fill-rule="evenodd" clip-rule="evenodd" d="M43.5248 36.6601C43.3735 38.9029 42.5677 41.05 41.2093 42.8299C39.8508 44.6098 38.0008 45.9425 35.893 46.6597C33.7853 47.3768 31.5145 47.4461 29.3678 46.8588C27.221 46.2715 25.2948 45.0539 23.8326 43.3601C22.3705 41.6663 21.438 39.5723 21.1532 37.3428C20.8683 35.1133 21.2439 32.8486 22.2324 30.8349C23.221 28.8211 24.778 27.1489 26.7066 26.0296C28.6353 24.9104 30.8491 24.3943 33.0679 24.5467C34.5421 24.6462 35.9822 25.0388 37.306 25.7018C38.6298 26.3648 39.8113 27.2853 40.7826 28.4106C41.754 29.5358 42.4961 30.8437 42.9667 32.2593C43.4372 33.6749 43.6269 35.1704 43.5248 36.6601Z" stroke="white" stroke-width="2" stroke-miterlimit="10" stroke-linecap="round"/>
<path fill-rule="evenodd" clip-rule="evenodd" d="M155.125 44.2796C154.979 46.5263 154.176 48.6786 152.819 50.464C151.462 52.2494 149.611 53.5878 147.501 54.3097C145.391 55.0315 143.117 55.1044 140.966 54.5192C138.815 53.9339 136.884 52.7168 135.418 51.0219C133.952 49.327 133.016 47.2305 132.729 44.9977C132.442 42.7649 132.816 40.4962 133.805 38.4788C134.794 36.4613 136.353 34.7858 138.285 33.6643C140.217 32.5428 142.434 32.0258 144.656 32.1786C146.13 32.2782 147.569 32.6703 148.893 33.3324C150.217 33.9945 151.398 34.9136 152.37 36.0373C153.342 37.161 154.086 38.4673 154.559 39.8815C155.032 41.2957 155.224 42.7902 155.125 44.2796Z" stroke="white" stroke-width="2" stroke-miterlimit="10" stroke-linecap="round"/>
<path fill-rule="evenodd" clip-rule="evenodd" d="M135.074 19.2309L128.694 10.8025L101.905 6.69418C101.905 6.69418 85.9801 3.5693 67.3203 14.2636L135.074 19.2309Z" stroke="white" stroke-width="2" stroke-miterlimit="10" stroke-linecap="round"/>
</g>
<defs>
<clipPath id="clip0_960_419">
<rect width="173" height="68" fill="white" transform="translate(0.945312 -0.00390625)"/>
</clipPath>
</defs>
</svg>
