<svg width="79" height="85" viewBox="0 0 79 85" fill="none" xmlns="http://www.w3.org/2000/svg">
<g clip-path="url(#clip0_980_4132)">
<path d="M1.43359 49.5576H27.9791L23.0747 75.3174H5.37503L1.43359 49.5576Z" stroke="#97700A" stroke-width="3" stroke-miterlimit="10" stroke-linecap="round"/>
<path d="M1.43359 2.13037C1.43359 2.13037 17.6889 2.51278 15.3061 21.1207C15.2213 22.7633 14.5725 24.3269 13.4685 25.5491C12.3646 26.7713 10.8726 27.5777 9.24297 27.8332C7.60009 27.9746 5.95525 27.5849 4.55174 26.7218C3.14822 25.8587 2.06061 24.5681 1.44988 23.0409L1.43359 2.13037Z" stroke="#97700A" stroke-width="3" stroke-miterlimit="10" stroke-linecap="round"/>
<path d="M9.22656 27.8335V48.8416" stroke="#97700A" stroke-width="3" stroke-miterlimit="10" stroke-linecap="round"/>
<path d="M25.1879 23.228C25.1879 23.228 16.2687 23.4396 17.5907 33.6426C17.6358 34.5437 17.9906 35.402 18.5953 36.0731C19.2001 36.7443 20.0181 37.1875 20.912 37.3284C21.814 37.4046 22.7167 37.1894 23.4868 36.7147C24.2568 36.24 24.8532 35.5309 25.1879 34.6922V23.228Z" stroke="#97700A" stroke-width="3" stroke-miterlimit="10" stroke-linecap="round"/>
<path d="M20.9121 37.3203V48.8414" stroke="#97700A" stroke-width="3" stroke-miterlimit="10" stroke-linecap="round"/>
<path d="M68.9286 16.8898C68.9302 19.3199 68.2085 21.6958 66.855 23.7166C65.5015 25.7374 63.577 27.3124 61.3251 28.2419C59.0733 29.1715 56.5955 29.4139 54.2054 28.9384C51.8153 28.4629 49.6204 27.291 47.8988 25.571C46.1771 23.851 45.0061 21.6602 44.534 19.2762C44.0619 16.8922 44.31 14.4221 45.2467 12.1787C46.1835 9.93537 47.7669 8.01961 49.7964 6.67407C51.8259 5.32853 54.2101 4.61372 56.6473 4.62016C59.9061 4.62877 63.0286 5.92501 65.3306 8.22486C67.6326 10.5247 68.9264 13.6406 68.9286 16.8898Z" stroke="#97700A" stroke-width="3" stroke-miterlimit="10" stroke-linecap="round"/>
<path d="M33.7578 51.429L54.8685 47.2144" stroke="#97700A" stroke-width="3" stroke-miterlimit="10" stroke-linecap="round"/>
<path d="M23.0742 83.6651L48.1427 68.149L63.7289 75.3416C76.7854 76.9689 77.7728 63.9506 77.7728 63.9506L73.7335 41.12C73.2688 38.5673 71.9123 36.2612 69.9046 34.6109C67.8969 32.9606 65.3678 32.0728 62.766 32.1048L25.2286 45.7252" stroke="#97700A" stroke-width="3" stroke-miterlimit="10" stroke-linecap="round"/>
</g>
<defs>
<clipPath id="clip0_980_4132">
<rect width="79" height="84" fill="white" transform="translate(0.00585938 0.877441)"/>
</clipPath>
</defs>
</svg>
