<svg width="87" height="92" viewBox="0 0 87 92" fill="none" xmlns="http://www.w3.org/2000/svg">
<g clip-path="url(#clip0_983_4216)">
<path d="M67.6192 82.9267C67.6192 84.3755 67.1922 85.7918 66.3921 86.9965C65.592 88.2012 64.4548 89.1401 63.1244 89.6946C61.7939 90.2491 60.3298 90.3941 58.9174 90.1115C57.505 89.8288 56.2076 89.1311 55.1893 88.1066C54.171 87.0821 53.4775 85.7768 53.1965 84.3558C52.9156 82.9348 53.0598 81.4619 53.6109 80.1233C54.162 78.7847 55.0953 77.6406 56.2927 76.8356C57.4901 76.0307 58.8978 75.6011 60.3379 75.6011C62.269 75.6011 64.1211 76.3729 65.4866 77.7467C66.8521 79.1205 67.6192 80.9838 67.6192 82.9267Z" stroke="#97700A" stroke-width="3" stroke-miterlimit="10" stroke-linecap="round"/>
<path d="M46.1152 15.3846L64.7634 2.01953L83.0151 16.1986H78.1448V34.9684H50.1685V15.3846H46.1152Z" stroke="#97700A" stroke-width="3" stroke-miterlimit="10" stroke-linecap="round"/>
<path d="M9.35156 89.495V63.6602" stroke="#97700A" stroke-width="3" stroke-miterlimit="10" stroke-linecap="round"/>
<path d="M24.2148 89.495V63.6602" stroke="#97700A" stroke-width="3" stroke-miterlimit="10" stroke-linecap="round"/>
<path d="M39.3588 89.4951V63.6602H1.7793V33.4707H43.9541V43.5312" stroke="#97700A" stroke-width="3" stroke-miterlimit="10" stroke-linecap="round"/>
<path d="M24.2148 47.3485C24.2148 47.3485 26.108 40.8369 31.2453 41.0892C31.2453 41.0892 51.7947 40.5438 54.2218 61.4869C54.2218 61.4869 53.1458 73.6962 58.267 75.3241" stroke="#97700A" stroke-width="3" stroke-miterlimit="10" stroke-linecap="round"/>
<path d="M24.2148 48.3013C24.2148 48.3013 24.2148 55.5048 31.7874 55.6269C31.7874 55.6269 38.5428 56.0338 39.2224 62.1385L39.3599 74.3478C39.3599 74.3478 45.282 90.8955 59.5857 90.2036" stroke="#97700A" stroke-width="3" stroke-miterlimit="10" stroke-linecap="round"/>
<path d="M19.0762 33.4707V63.6602" stroke="#97700A" stroke-width="3" stroke-miterlimit="10" stroke-linecap="round"/>
<path d="M54.3594 34.9683V63.1148" stroke="#97700A" stroke-width="3" stroke-miterlimit="10" stroke-linecap="round"/>
<path d="M74.6328 34.9683V89.495" stroke="#97700A" stroke-width="3" stroke-miterlimit="10" stroke-linecap="round"/>
<path d="M74.6334 49.9287H58.0078" stroke="#97700A" stroke-width="3" stroke-miterlimit="10" stroke-linecap="round"/>
<path d="M74.6334 57.4092H58.0078" stroke="#97700A" stroke-width="3" stroke-miterlimit="10" stroke-linecap="round"/>
<path d="M74.6334 64.8813H58.0078" stroke="#97700A" stroke-width="3" stroke-miterlimit="10" stroke-linecap="round"/>
<path d="M27.0547 33.4707L50.1687 23.9556" stroke="#97700A" stroke-width="3" stroke-miterlimit="10" stroke-linecap="round"/>
<path d="M43.9551 38.5008L51.5195 34.9683" stroke="#97700A" stroke-width="3" stroke-miterlimit="10" stroke-linecap="round"/>
<path d="M69.2942 25.3151C69.2942 26.3373 68.9929 27.3366 68.4284 28.1866C67.8639 29.0366 67.0616 29.6991 66.1229 30.0903C65.1841 30.4815 64.1512 30.5838 63.1546 30.3844C62.1581 30.1849 61.2427 29.6927 60.5242 28.9698C59.8058 28.247 59.3165 27.326 59.1182 26.3234C58.92 25.3208 59.0218 24.2816 59.4106 23.3371C59.7994 22.3927 60.4579 21.5855 61.3027 21.0175C62.1475 20.4496 63.1408 20.1465 64.1569 20.1465C64.8315 20.1465 65.4996 20.2802 66.1229 20.5399C66.7461 20.7997 67.3125 21.1804 67.7895 21.6603C68.2666 22.1403 68.645 22.7101 68.9032 23.3371C69.1614 23.9642 69.2942 24.6363 69.2942 25.3151Z" stroke="#97700A" stroke-width="3" stroke-miterlimit="10" stroke-linecap="round"/>
<path d="M14.3531 48.5047C14.3531 51.7605 12.4438 54.414 10.0976 54.414C7.75138 54.414 5.83398 51.7686 5.83398 48.5047C5.83398 45.2407 7.74329 42.6035 10.0976 42.6035C12.4518 42.6035 14.3531 45.2326 14.3531 48.5047Z" stroke="#97700A" stroke-width="3" stroke-miterlimit="10" stroke-linecap="round"/>
</g>
<defs>
<clipPath id="clip0_983_4216">
<rect width="86" height="91" fill="white" transform="translate(0.566406 0.497559)"/>
</clipPath>
</defs>
</svg>
