<svg width="70" height="87" viewBox="0 0 70 87" fill="none" xmlns="http://www.w3.org/2000/svg">
<g clip-path="url(#clip0_980_4155)">
<path d="M36.3311 10.3269C36.3326 11.9312 35.86 13.5 34.973 14.8346C34.086 16.1693 32.8245 17.2097 31.3482 17.8244C29.8719 18.4391 28.2471 18.6003 26.6795 18.2877C25.1118 17.9751 23.6718 17.2027 22.5417 16.0682C21.4115 14.9337 20.642 13.4882 20.3306 11.9146C20.0192 10.341 20.1798 8.70998 20.7922 7.22803C21.4045 5.74607 22.441 4.47977 23.7706 3.58939C25.1001 2.699 26.6629 2.22454 28.2612 2.22608C30.4014 2.22608 32.4541 3.07955 33.9675 4.59874C35.4809 6.11793 36.3311 8.17839 36.3311 10.3269Z" stroke="#97700A" stroke-width="3" stroke-miterlimit="10" stroke-linecap="round"/>
<path d="M42.1394 43.3813L43.9155 27.1798L54.92 4.48986C55.0822 1.08675 50.7267 2.22629 50.7267 2.22629L37.6526 23.1565L25.2195 24.2883L15.5356 28.955L5.04848 18.4278C5.04848 18.4278 1.49616 16.8077 1.33398 20.048L13.2188 37.2185L23.0649 33.7922L25.9686 48.986C25.9686 48.986 57.4452 48.986 67.9323 3.35808" stroke="#97700A" stroke-width="3" stroke-miterlimit="10" stroke-linecap="round"/>
<path d="M25.1885 48.9861C23.1652 54.9861 21.0596 60.9577 18.8716 66.9008C17.6128 70.3272 16.0915 73.4357 14.5702 76.738C13.6821 78.6682 12.431 81.1489 13.0257 83.3272C13.7361 86.0791 16.7402 86.4279 18.6785 84.5365C25.536 77.8465 34.6717 59.583 34.6717 59.583C34.6717 59.583 39.3051 62.6837 49.2825 51.831C49.7382 54.3039 50.1938 56.7923 50.6571 59.2729C51.1205 61.7535 50.9506 70.2264 55.5918 68.5132C59.5534 67.0558 58.4413 60.9085 57.9085 57.7845C56.9664 52.2419 56.364 46.7225 55.7385 41.1334C55.7385 41.1334 55.1516 35.9938 46.2708 41.1334" stroke="#97700A" stroke-width="3" stroke-miterlimit="10" stroke-linecap="round"/>
<path d="M39.7148 59.2573V84.5364" stroke="#97700A" stroke-width="3" stroke-miterlimit="10" stroke-linecap="round"/>
</g>
<defs>
<clipPath id="clip0_980_4155">
<rect width="69" height="86" fill="white" transform="translate(0.128906 0.877441)"/>
</clipPath>
</defs>
</svg>
